<svg xmlns="http://www.w3.org/2000/svg" viewBox="0 0 24.72 23.99"><defs><style>.\32 4ae2a14-6e83-48f4-a8e4-d3845252c62c{fill:#fff;}</style></defs><title>gh_logo_1</title><g id="17d120fa-d7e1-4a8b-8ee8-1a8ae8082a2a" data-name="Layer 2"><g id="349398bc-f59b-4e54-b5c2-e76f2316d571" data-name="Layer 1"><g id="e14a332d-eef1-4e24-8e86-a66c497ca9b6" data-name="b6994664-705f-4ed7-8104-fd1f5f89e4b4"><g id="a809ffd9-dca9-4fba-b84b-b1667de5321a" data-name="686f39b5-ac4d-46a7-b138-5e04ba92fc77"><path class="24ae2a14-6e83-48f4-a8e4-d3845252c62c" d="M12.27,0A12.27,12.27,0,0,0,8.39,23.91c.61.11.84-.27.84-.59V21.23C5.8,22,5.08,19.59,5.08,19.59A3.25,3.25,0,0,0,3.72,17.8C2.6,17,3.8,17,3.8,17a2.58,2.58,0,0,1,1.88,1.26,2.61,2.61,0,0,0,3.55,1h0A2.62,2.62,0,0,1,10,17.69c-2.72-.31-5.59-1.36-5.59-6.06A4.74,4.74,0,0,1,5.7,8.34a4.41,4.41,0,0,1,.12-3.25s1-.33,3.37,1.26a11.63,11.63,0,0,1,6.14,0c2.34-1.59,3.37-1.26,3.37-1.26a4.41,4.41,0,0,1,.12,3.25,4.73,4.73,0,0,1,1.26,3.29c0,4.71-2.87,5.75-5.6,6.05A2.93,2.93,0,0,1,15.33,20v3.37c0,.37.22.71.84.59a12.27,12.27,0,0,0-3.9-24Z"/></g></g></g></g></svg>