<svg xmlns="http://www.w3.org/2000/svg" viewBox="0 0 24.54 23.93"><defs><style>.af79743e-e6be-4618-8155-f0336a4e02be{fill:#fff;fill-rule:evenodd;}</style></defs><title>gh_logo_1</title><g id="b6994664-705f-4ed7-8104-fd1f5f89e4b4" data-name="Layer 2"><g id="686f39b5-ac4d-46a7-b138-5e04ba92fc77" data-name="landing_fg"><path class="af79743e-e6be-4618-8155-f0336a4e02be" d="M12.27,0A12.27,12.27,0,0,0,8.39,23.91c.61.11.84-.27.84-.59s0-1.06,0-2.09C5.8,22,5.08,19.59,5.08,19.59a3.25,3.25,0,0,0-1.36-1.79C2.6,17,3.8,17,3.8,17a2.58,2.58,0,0,1,1.88,1.26,2.61,2.61,0,0,0,3.57,1A2.62,2.62,0,0,1,10,17.69c-2.72-.31-5.59-1.36-5.59-6.06A4.74,4.74,0,0,1,5.7,8.34a4.41,4.41,0,0,1,.12-3.25s1-.33,3.37,1.26a11.63,11.63,0,0,1,6.14,0c2.34-1.59,3.37-1.26,3.37-1.26a4.41,4.41,0,0,1,.12,3.25,4.73,4.73,0,0,1,1.26,3.29c0,4.71-2.87,5.75-5.6,6.05A2.93,2.93,0,0,1,15.33,20c0,1.64,0,3,0,3.37s.22.71.84.59A12.27,12.27,0,0,0,12.27,0Z"/></g></g></svg>