<?xml version="1.0" encoding="utf-8"?>
<!-- Generator: Adobe Illustrator 20.1.0, SVG Export Plug-In . SVG Version: 6.00 Build 0)  -->
<svg version="1.1" id="Layer_1" xmlns="http://www.w3.org/2000/svg" xmlns:xlink="http://www.w3.org/1999/xlink" x="0px" y="0px"
	 viewBox="0 0 24.5 23.9" style="enable-background:new 0 0 24.5 23.9;" xml:space="preserve">
<style type="text/css">
	.st0{fill:#FFFFFF;}
</style>
<title>gh_logo_1</title>
<g id="b6994664-705f-4ed7-8104-fd1f5f89e4b4">
	<g id="_x36_86f39b5-ac4d-46a7-b138-5e04ba92fc77">
		<path class="st0" d="M12.3,0C5.5,0,0,5.5,0,12.3c0,5.3,3.4,10,8.4,11.6C9,24,9.2,23.6,9.2,23.3s0-1.1,0-2.1
			c-3.4,0.8-4.2-1.6-4.2-1.6c-0.2-0.7-0.7-1.4-1.4-1.8C2.6,17,3.8,17,3.8,17c0.8,0.1,1.5,0.6,1.9,1.3c0.7,1.3,2.3,1.7,3.5,1
			c0,0,0,0,0,0c0.1-0.6,0.3-1.1,0.8-1.6c-2.7-0.3-5.6-1.4-5.6-6.1c0-1.2,0.5-2.4,1.3-3.3C5.3,7.3,5.4,6.1,5.8,5.1c0,0,1-0.3,3.4,1.3
			c2-0.6,4.1-0.6,6.1,0c2.3-1.6,3.4-1.3,3.4-1.3c0.5,1,0.5,2.2,0.1,3.3c0.8,0.9,1.3,2.1,1.3,3.3c0,4.7-2.9,5.8-5.6,6
			c0.6,0.6,0.9,1.5,0.8,2.3c0,1.6,0,3,0,3.4s0.2,0.7,0.8,0.6c6.5-2.1,10-9,8-15.4C22.5,3.4,17.7-0.1,12.3,0z"/>
	</g>
</g>
</svg>
