<svg xmlns="http://www.w3.org/2000/svg" viewBox="0 0 74.91 74.9"><defs><style>.ab87117b-ee33-4eda-a6ce-b482d471d27a{fill:#e5e5e5;}</style></defs><title>git</title><g id="8c0f9457-15b1-45d8-a1b2-6f6c54b138ea" data-name="Layer 2"><g id="9a9a969c-3310-4108-ad13-20d1906dfd73" data-name="landing_fg"><path class="ab87117b-ee33-4eda-a6ce-b482d471d27a" d="M73.49,34.12,40.79,1.41a4.82,4.82,0,0,0-6.82,0L27.17,8.2l8.61,8.61A5.73,5.73,0,0,1,43,24.12l8.3,8.3a5.73,5.73,0,1,1-3.44,3.24l-7.74-7.74V48.29a5.73,5.73,0,1,1-4.72-.17V27.56A5.74,5.74,0,0,1,32.33,20l-8.49-8.49L1.41,34a4.83,4.83,0,0,0,0,6.82l32.71,32.7a4.82,4.82,0,0,0,6.82,0L73.49,40.94A4.83,4.83,0,0,0,73.49,34.12Z"/></g></g></svg>