<svg xmlns="http://www.w3.org/2000/svg" viewBox="0 0 82.57 73.94"><defs><style>.\30 71e6fbf-0bef-4f10-9bfb-bfefdc139410{fill:#e5e5e5;}.f3ed1de2-739d-4eec-9026-dae0ba5bbc7e{fill:#be5d59;}</style></defs><title>internet</title><g id="24e40eac-42bc-4078-8de4-7cab232f6b81" data-name="Layer 2"><g id="6b3b6982-d5e7-49a3-b98c-7dabd94cdb78" data-name="landing_fg"><path class="071e6fbf-0bef-4f10-9bfb-bfefdc139410" d="M37.42,5A57.72,57.72,0,0,1,81.54,21.27,4.07,4.07,0,0,1,81.26,27a4,4,0,0,1-5.89.08,49.16,49.16,0,0,0-67.94-.15A4.24,4.24,0,0,1,4.69,28.3,4.42,4.42,0,0,1,.09,23.17,4.29,4.29,0,0,1,1.55,20.8,57.82,57.82,0,0,1,37.42,5Z"/><path class="071e6fbf-0bef-4f10-9bfb-bfefdc139410" d="M37,20.85a42,42,0,0,1,33.92,12,4.06,4.06,0,0,1-.32,5.51,4,4,0,0,1-5.74.35,33.47,33.47,0,0,0-47.05-.06,4,4,0,0,1-5.89-.29,4,4,0,0,1-.19-5.57A42.11,42.11,0,0,1,37,20.85Z"/><path class="071e6fbf-0bef-4f10-9bfb-bfefdc139410" d="M38.84,36.45a26.34,26.34,0,0,1,21.28,7.86,4.23,4.23,0,0,1-6.06,5.86,17.74,17.74,0,0,0-25.22-.25,4.09,4.09,0,0,1-3.48,1.42c-3.07-.22-5.2-4.31-3.08-6.77A26.24,26.24,0,0,1,38.84,36.45Z"/><path class="071e6fbf-0bef-4f10-9bfb-bfefdc139410" d="M40,51a9.06,9.06,0,1,1-7.75,10A9.1,9.1,0,0,1,40,51Z"/><rect class="f3ed1de2-739d-4eec-9026-dae0ba5bbc7e" x="-3.53" y="29.51" width="89.64" height="14.93" transform="translate(-14.05 40.02) rotate(-45)"/><rect class="f3ed1de2-739d-4eec-9026-dae0ba5bbc7e" x="-3.53" y="29.51" width="89.64" height="14.93" transform="translate(44.34 92.31) rotate(-135)"/></g></g></svg>