<svg xmlns="http://www.w3.org/2000/svg" viewBox="0 0 82.57 64.14"><defs><style>.\38 b0f929a-cec3-4e11-8e74-798e794b181e{fill:#e5e5e5;}</style></defs><title>internet_1</title><g id="e1995c80-602f-4cd1-9d49-292619b32cb8" data-name="Layer 2"><g id="f7eb4a89-1959-4c44-bc80-e0fa601179de" data-name="landing_fg"><path class="8b0f929a-cec3-4e11-8e74-798e794b181e" d="M81.54,16.36A57.69,57.69,0,0,0,47.85.39l-.22,8.45A49.62,49.62,0,0,1,75.37,22.13a4,4,0,0,0,5.89-.08A4.07,4.07,0,0,0,81.54,16.36Z"/><path class="8b0f929a-cec3-4e11-8e74-798e794b181e" d="M1.55,15.89A4.29,4.29,0,0,0,.09,18.26,4.42,4.42,0,0,0,4.69,23.4,4.24,4.24,0,0,0,7.43,22,49.52,49.52,0,0,1,35,8.85L34.73.38A57.85,57.85,0,0,0,1.55,15.89Z"/><path class="8b0f929a-cec3-4e11-8e74-798e794b181e" d="M64.87,33.84a4,4,0,0,0,5.74-.35A4.06,4.06,0,0,0,70.94,28a42,42,0,0,0-23.5-11.79l-.22,8.49A33.92,33.92,0,0,1,64.87,33.84Z"/><path class="8b0f929a-cec3-4e11-8e74-798e794b181e" d="M11.74,27.92a4,4,0,0,0,.19,5.57,4,4,0,0,0,5.89.29,33.76,33.76,0,0,1,17.55-9.1l-.22-8.51A42.11,42.11,0,0,0,11.74,27.92Z"/><path class="8b0f929a-cec3-4e11-8e74-798e794b181e" d="M22.27,39.66c-2.11,2.46,0,6.55,3.08,6.77A4.09,4.09,0,0,0,28.83,45a18,18,0,0,1,7-4.23l-.23-8.67A26,26,0,0,0,22.27,39.66Z"/><path class="8b0f929a-cec3-4e11-8e74-798e794b181e" d="M54.06,45.26a4.23,4.23,0,0,0,6.06-5.86A26.3,26.3,0,0,0,47,32.08l-.23,8.67A18,18,0,0,1,54.06,45.26Z"/><path class="8b0f929a-cec3-4e11-8e74-798e794b181e" d="M41.25,1c1.83,0,3.7.09,5.58.28l-.2,7.53-.19,7.35-.22,8.49-.2,7.4-.19,7.38a17.6,17.6,0,0,0-3.38-.53c-.39,0-.79,0-1.18,0a17.82,17.82,0,0,0-4.5.59l-.2-7.37-.2-7.42-.22-8.5L36,8.83l-.2-7.56,1.73-.14C38.72,1,40,1,41.25,1m0-1q-1.92,0-3.83.14c-.9.06-1.79.14-2.68.24L35,8.86l.19,7.33.22,8.5.2,7.42.23,8.67a17.18,17.18,0,0,1,5.47-.92q.56,0,1.11,0a17.47,17.47,0,0,1,4.42.85L47,32.08l.2-7.4.22-8.49.19-7.35L47.85.39A57.46,57.46,0,0,0,41.25,0Z"/><path class="8b0f929a-cec3-4e11-8e74-798e794b181e" d="M41.25,1h0c1.27,0,2.57,0,3.86.14A1.8,1.8,0,0,1,46.78,3l-.15,5.82-.19,7.35-.22,8.49-.2,7.4-.13,5.25a1.79,1.79,0,0,1-1.8,1.75l-.26,0c-.47-.07-.94-.11-1.38-.13s-.79,0-1.18,0a17.45,17.45,0,0,0-2.52.19l-.26,0a1.8,1.8,0,0,1-1.78-1.75l-.14-5.23-.2-7.42-.22-8.5L36,8.83,35.8,3a1.8,1.8,0,0,1,1.68-1.84C38.72,1,40,1,41.25,1m0-1q-1.92,0-3.83.14A2.8,2.8,0,0,0,34.8,3L35,8.86l.19,7.33.22,8.5.2,7.42.14,5.23A2.78,2.78,0,0,0,38.89,40a16.38,16.38,0,0,1,2.37-.18q.56,0,1.11,0t1.31.13l.39,0a2.8,2.8,0,0,0,2.8-2.73L47,32.08l.2-7.4.22-8.49.19-7.35L47.78,3A2.81,2.81,0,0,0,45.17.14Q43.21,0,41.25,0Z"/><path class="8b0f929a-cec3-4e11-8e74-798e794b181e" d="M50.33,54.51A9.05,9.05,0,1,1,40,46.11,9.1,9.1,0,0,1,50.33,54.51ZM35.66,55.7a5.67,5.67,0,1,0,4.85-6.24A5.69,5.69,0,0,0,35.66,55.7Z"/></g></g></svg>