<svg xmlns="http://www.w3.org/2000/svg" viewBox="0 0 858.67 311.82"><defs><style>.\38 fc29cc3-145e-47db-8e5b-987a714dbb9e{fill:#049898;}.\32 79a7bfc-54dd-4d30-a12f-ab1a61dc7851{fill:#4dc4ad;}.\34 ed1921c-5859-455e-b267-c5d2dae5744a{fill:#5e696d;}.bcad3568-eab0-4b75-b9eb-13fe2edb49b7{fill:#9fadb3;}</style></defs><title>logoNoSlogan</title><g id="0063528f-6051-40c4-90c9-dac3a74af93e" data-name="Layer 2"><g id="5a6475a0-fbf1-412f-807a-5894d95277bb" data-name="Layer 1"><polygon class="8fc29cc3-145e-47db-8e5b-987a714dbb9e" points="151.46 81.46 104.43 108.62 57.39 81.46 57.39 27.16 104.43 0 151.46 27.16 151.46 81.46"/><polygon class="279a7bfc-54dd-4d30-a12f-ab1a61dc7851" points="57.39 27.11 104.34 54.21 151.29 27.11 104.34 0 57.39 27.11"/><polygon class="8fc29cc3-145e-47db-8e5b-987a714dbb9e" points="151.46 279.02 104.43 306.18 57.39 279.02 57.39 224.72 104.43 197.56 151.46 224.72 151.46 279.02"/><polygon class="279a7bfc-54dd-4d30-a12f-ab1a61dc7851" points="57.48 224.67 104.43 251.77 151.38 224.67 104.43 197.56 57.48 224.67"/><polygon class="8fc29cc3-145e-47db-8e5b-987a714dbb9e" points="208.75 180.25 161.72 207.4 114.68 180.25 114.68 125.94 161.72 98.78 208.75 125.94 208.75 180.25"/><polygon class="8fc29cc3-145e-47db-8e5b-987a714dbb9e" points="94.07 180.25 47.03 207.4 0 180.25 0 125.94 47.03 98.78 94.07 125.94 94.07 180.25"/><polygon class="279a7bfc-54dd-4d30-a12f-ab1a61dc7851" points="0.09 125.89 47.03 152.99 93.98 125.89 47.03 98.78 0.09 125.89"/><polygon class="279a7bfc-54dd-4d30-a12f-ab1a61dc7851" points="114.77 125.89 161.72 152.99 208.67 125.89 161.72 98.78 114.77 125.89"/><path class="8fc29cc3-145e-47db-8e5b-987a714dbb9e" d="M347.21,72.41H292.64v63.42h47.15v32.29H292.64v89.42H252.93V40.4h94.29Z"/><path class="8fc29cc3-145e-47db-8e5b-987a714dbb9e" d="M471.83,208.39c0,32.58-23.15,49.14-54.58,49.14-29.15,0-54.27-15.42-54.27-49.14V149.55c0-33.15,23.71-50.86,54.27-50.86,29.71,0,54.58,16.87,54.58,50.86Zm-37.71-60.84c0-12.86-7.14-20-16.87-20-9.14,0-16.56,6.57-16.56,19.42v63.72c0,12,6.56,18,16.84,18,10,0,16.59-6.85,16.59-18Z"/><path class="8fc29cc3-145e-47db-8e5b-987a714dbb9e" d="M569.91,140.11a65.92,65.92,0,0,0-11.45-1.43c-20,0-29.4,14.57-29.4,30.86v88H491.33V128.68a129.11,129.11,0,0,0-2-22.29v-.57h34c1.72,6.29,2.86,15.71,3.14,24.29h.86c8.28-20.86,22.57-28.57,42.57-28.57Z"/><path class="4ed1921c-5859-455e-b267-c5d2dae5744a" d="M641.38,311.82c-51.41,0-68-8-68-24.58,0-13.7,7.44-20,19.73-23.71v-.29c-10.86-3.71-18-8.28-18-20.56,0-16.57,16-24.58,32-28.58v-.57c-14-5.71-22-18-22-39.42V153c0-29.71,18.84-51.14,52.57-51.14,23.12,0,33.41,8.29,40,17.44h.56c4.86-15.44,14.87-22.58,29.15-22.58v35.14a35,35,0,0,0-6.56-.57c-6.58,0-10,5.72-10,12.29v30.57c0,27.14-18.28,46.85-53.13,46.85a74.58,74.58,0,0,1-13.14-1.14c-6.3,1.71-10.58,3.71-10.58,9.42,0,5.14,9.14,7.72,38.57,7.72,38.29,0,55.13,12.85,55.13,36.85C707.65,297,678.81,311.82,641.38,311.82Zm4-42.86-30.57-.28c-4,1.43-6.56,4.57-6.56,10.28,0,7.71,8.84,12.57,35.71,12.57,18.56,0,25.43-6,25.43-12C669.38,273.82,663.66,269.25,645.38,269Zm8.86-120.84c0-11.71-5.42-18.28-15.73-18.28-10,0-16.84,6.28-16.84,18.56v28.86c0,11.71,6.56,18,16.84,18,10,0,15.73-6,15.73-18Z"/><rect class="4ed1921c-5859-455e-b267-c5d2dae5744a" x="723.43" y="105.82" width="37.43" height="151.71"/><rect class="4ed1921c-5859-455e-b267-c5d2dae5744a" x="723.38" y="42.98" width="37.44" height="36.3"/><path class="4ed1921c-5859-455e-b267-c5d2dae5744a" d="M827.67,68.64h-20.5c-2.56,21-12.28,39.86-27.15,39.86h-5.5v24.36H790v84.4c0,21.24,8.78,35,27.49,39.65,15.28,3.8,31.52-3.08,38.22-17.33a33,33,0,0,0,2.77-9.12,106.05,106.05,0,0,1-14.8,1.08c-10.58,0-16-5.14-16-15.71v-83h31V106.28h-31Z"/><line class="bcad3568-eab0-4b75-b9eb-13fe2edb49b7" x1="723.43" y1="105.82" x2="760.86" y2="105.82"/></g></g></svg>