<svg xmlns="http://www.w3.org/2000/svg" viewBox="0 0 208.75 306.18"><defs><style>.\30 edad445-91ca-40f8-9ed0-875f8082c051{fill:#049898;}.\38 b24fa1d-ea5e-448d-b2e7-e972cbc18270{fill:#4dc4ad;}</style></defs><title>logo</title><g id="2bb00946-2c9d-40a1-b4ff-f09e464e598b" data-name="Layer 2"><g id="187b9488-0161-4d45-97b1-2f6efa36269a" data-name="Layer 1"><polygon class="0edad445-91ca-40f8-9ed0-875f8082c051" points="151.46 81.46 104.43 108.62 57.39 81.46 57.39 27.16 104.43 0 151.46 27.16 151.46 81.46"/><polygon class="8b24fa1d-ea5e-448d-b2e7-e972cbc18270" points="57.39 27.11 104.34 54.21 151.29 27.11 104.34 0 57.39 27.11"/><polygon class="0edad445-91ca-40f8-9ed0-875f8082c051" points="151.46 279.02 104.43 306.18 57.39 279.02 57.39 224.72 104.43 197.56 151.46 224.72 151.46 279.02"/><polygon class="8b24fa1d-ea5e-448d-b2e7-e972cbc18270" points="57.48 224.67 104.43 251.77 151.38 224.67 104.43 197.56 57.48 224.67"/><polygon class="0edad445-91ca-40f8-9ed0-875f8082c051" points="208.75 180.25 161.72 207.4 114.68 180.25 114.68 125.94 161.72 98.78 208.75 125.94 208.75 180.25"/><polygon class="0edad445-91ca-40f8-9ed0-875f8082c051" points="94.07 180.25 47.03 207.4 0 180.25 0 125.94 47.03 98.78 94.07 125.94 94.07 180.25"/><polygon class="8b24fa1d-ea5e-448d-b2e7-e972cbc18270" points="0.09 125.89 47.03 152.99 93.98 125.89 47.03 98.78 0.09 125.89"/><polygon class="8b24fa1d-ea5e-448d-b2e7-e972cbc18270" points="114.77 125.89 161.72 152.99 208.67 125.89 161.72 98.78 114.77 125.89"/></g></g></svg>