<svg xmlns="http://www.w3.org/2000/svg" viewBox="0 0 134.18 48.73"><defs><style>.\37 37f1092-c6f5-4b30-8542-c9877477aea8{fill:#049898;}.\31 cd0a7c8-66c8-4dae-8d2b-da6a617310cb{fill:#4dc4ad;}.d930658a-3ce3-4612-8e3c-e808bb66e475{fill:#fff;}.\36 a9471a7-f99b-4441-80d2-35949cdfef60{fill:#9fadb3;}</style></defs><title>logoNoSloganColor</title><g id="45be7de6-6598-4e9d-b991-74bbabff7f56" data-name="Layer 2"><g id="a193d07c-f4dd-4630-919d-472622351160" data-name="landing_fg"><polygon class="737f1092-c6f5-4b30-8542-c9877477aea8" points="23.67 12.73 16.32 16.97 8.97 12.73 8.97 4.24 16.32 0 23.67 4.24 23.67 12.73"/><polygon class="1cd0a7c8-66c8-4dae-8d2b-da6a617310cb" points="8.97 4.24 16.3 8.47 23.64 4.24 16.3 0 8.97 4.24"/><polygon class="737f1092-c6f5-4b30-8542-c9877477aea8" points="23.67 43.6 16.32 47.85 8.97 43.6 8.97 35.12 16.32 30.87 23.67 35.12 23.67 43.6"/><polygon class="1cd0a7c8-66c8-4dae-8d2b-da6a617310cb" points="8.98 35.11 16.32 39.34 23.66 35.11 16.32 30.87 8.98 35.11"/><polygon class="737f1092-c6f5-4b30-8542-c9877477aea8" points="32.62 28.17 25.27 32.41 17.92 28.17 17.92 19.68 25.27 15.44 32.62 19.68 32.62 28.17"/><polygon class="737f1092-c6f5-4b30-8542-c9877477aea8" points="14.7 28.17 7.35 32.41 0 28.17 0 19.68 7.35 15.44 14.7 19.68 14.7 28.17"/><polygon class="1cd0a7c8-66c8-4dae-8d2b-da6a617310cb" points="0.01 19.67 7.35 23.91 14.69 19.67 7.35 15.44 0.01 19.67"/><polygon class="1cd0a7c8-66c8-4dae-8d2b-da6a617310cb" points="17.93 19.67 25.27 23.91 32.61 19.67 25.27 15.44 17.93 19.67"/><path class="d930658a-3ce3-4612-8e3c-e808bb66e475" d="M54.26,11.31H45.73v9.91H53.1v5H45.73v14H39.52V6.31H54.26Z"/><path class="d930658a-3ce3-4612-8e3c-e808bb66e475" d="M73.73,32.56c0,5.09-3.62,7.68-8.53,7.68-4.55,0-8.48-2.41-8.48-7.68v-9.2c0-5.18,3.7-7.95,8.48-7.95s8.53,2.64,8.53,7.95Zm-5.89-9.51c0-2-1.12-3.13-2.64-3.13s-2.59,1-2.59,3v10c0,1.88,1,2.81,2.63,2.81a2.53,2.53,0,0,0,2.59-2.81Z"/><path class="d930658a-3ce3-4612-8e3c-e808bb66e475" d="M89.06,21.89a10.3,10.3,0,0,0-1.79-.22c-3.12,0-4.59,2.28-4.59,4.82V40.24h-5.9V20.11a20.17,20.17,0,0,0-.31-3.48v-.09h5.31a18.11,18.11,0,0,1,.49,3.8h.13a6.44,6.44,0,0,1,6.65-4.46Z"/><path class="1cd0a7c8-66c8-4dae-8d2b-da6a617310cb" d="M100.23,48.73c-8,0-10.63-1.25-10.63-3.84,0-2.14,1.16-3.12,3.08-3.7v0c-1.7-.58-2.81-1.29-2.81-3.21,0-2.59,2.5-3.84,5-4.47v-.09c-2.18-.89-3.44-2.81-3.44-6.16V23.9c0-4.64,2.94-8,8.22-8,3.61,0,5.22,1.3,6.25,2.72H106a4.46,4.46,0,0,1,4.55-3.53V20.6a5.47,5.47,0,0,0-1-.09c-1,0-1.56.89-1.56,1.92v4.78c0,4.24-2.86,7.32-8.3,7.32a11.65,11.65,0,0,1-2.05-.18c-1,.27-1.65.58-1.65,1.47S97.37,37,102,37c6,0,8.62,2,8.62,5.76S106.07,48.73,100.23,48.73Zm.63-6.7-4.78,0a1.52,1.52,0,0,0-1,1.61c0,1.21,1.38,2,5.58,2,2.9,0,4-.94,4-1.88S103.71,42.07,100.85,42Zm1.39-18.88c0-1.83-.85-2.86-2.46-2.86s-2.63,1-2.63,2.9V27.7a2.49,2.49,0,0,0,2.63,2.81c1.56,0,2.46-.94,2.46-2.81Z"/><rect class="1cd0a7c8-66c8-4dae-8d2b-da6a617310cb" x="113.05" y="16.54" width="5.85" height="23.71"/><rect class="1cd0a7c8-66c8-4dae-8d2b-da6a617310cb" x="113.04" y="6.72" width="5.85" height="5.67"/><path class="1cd0a7c8-66c8-4dae-8d2b-da6a617310cb" d="M129.34,10.73h-3.2c-.4,3.29-1.92,6.23-4.24,6.23H121v3.81h2.42V33.95c0,3.32,1.37,5.47,4.3,6.2A5.07,5.07,0,0,0,134.16,36a16.57,16.57,0,0,1-2.31.17,2.19,2.19,0,0,1-2.51-2.46v-13h4.84V16.61h-4.84Z"/><line class="6a9471a7-f99b-4441-80d2-35949cdfef60" x1="113.05" y1="16.54" x2="118.9" y2="16.54"/></g></g></svg>