<svg xmlns="http://www.w3.org/2000/svg" viewBox="0 0 858.67 407.2"><defs><style>.\36 fd7d4df-5ed2-4932-9530-f56f44dbe419{fill:#049898;}.\32 529a1a5-b7a1-4ef4-a886-8fcbe07bab49{fill:#4dc4ad;}.\34 d5ef63e-281b-4246-a97d-e95e90007d81{fill:#5e696d;}.c4ddd65f-d95f-4905-8aa5-77b80bb9c1bf{fill:#9fadb3;}</style></defs><title>logoSlogan</title><g id="6203827e-cfc1-4985-8a78-b1d84ead453b" data-name="Layer 2"><g id="96e02c73-ca7d-4722-a2b4-b90e1371ed18" data-name="Layer 1"><polygon class="6fd7d4df-5ed2-4932-9530-f56f44dbe419" points="151.46 81.46 104.43 108.62 57.39 81.46 57.39 27.16 104.43 0 151.46 27.16 151.46 81.46"/><polygon class="2529a1a5-b7a1-4ef4-a886-8fcbe07bab49" points="57.39 27.11 104.34 54.21 151.29 27.11 104.34 0 57.39 27.11"/><polygon class="6fd7d4df-5ed2-4932-9530-f56f44dbe419" points="151.46 279.02 104.43 306.18 57.39 279.02 57.39 224.72 104.43 197.56 151.46 224.72 151.46 279.02"/><polygon class="2529a1a5-b7a1-4ef4-a886-8fcbe07bab49" points="57.48 224.67 104.43 251.77 151.38 224.67 104.43 197.56 57.48 224.67"/><polygon class="6fd7d4df-5ed2-4932-9530-f56f44dbe419" points="208.75 180.25 161.72 207.4 114.68 180.25 114.68 125.94 161.72 98.78 208.75 125.94 208.75 180.25"/><polygon class="6fd7d4df-5ed2-4932-9530-f56f44dbe419" points="94.07 180.25 47.03 207.4 0 180.25 0 125.94 47.03 98.78 94.07 125.94 94.07 180.25"/><polygon class="2529a1a5-b7a1-4ef4-a886-8fcbe07bab49" points="0.09 125.89 47.03 152.99 93.98 125.89 47.03 98.78 0.09 125.89"/><polygon class="2529a1a5-b7a1-4ef4-a886-8fcbe07bab49" points="114.77 125.89 161.72 152.99 208.67 125.89 161.72 98.78 114.77 125.89"/><path class="6fd7d4df-5ed2-4932-9530-f56f44dbe419" d="M347.21,72.41H292.64v63.42h47.15v32.29H292.64v89.42H252.93V40.4h94.29Z"/><path class="6fd7d4df-5ed2-4932-9530-f56f44dbe419" d="M471.83,208.39c0,32.58-23.15,49.14-54.58,49.14-29.15,0-54.27-15.42-54.27-49.14V149.55c0-33.15,23.71-50.86,54.27-50.86,29.71,0,54.58,16.87,54.58,50.86Zm-37.71-60.84c0-12.86-7.14-20-16.87-20-9.14,0-16.56,6.57-16.56,19.42v63.72c0,12,6.56,18,16.84,18,10,0,16.59-6.85,16.59-18Z"/><path class="6fd7d4df-5ed2-4932-9530-f56f44dbe419" d="M569.91,140.11a65.92,65.92,0,0,0-11.45-1.43c-20,0-29.4,14.57-29.4,30.86v88H491.33V128.68a129.11,129.11,0,0,0-2-22.29v-.57h34c1.72,6.29,2.86,15.71,3.14,24.29h.86c8.28-20.86,22.57-28.57,42.57-28.57Z"/><path class="4d5ef63e-281b-4246-a97d-e95e90007d81" d="M641.38,311.82c-51.41,0-68-8-68-24.58,0-13.7,7.44-20,19.73-23.71v-.29c-10.86-3.71-18-8.28-18-20.56,0-16.57,16-24.58,32-28.58v-.57c-14-5.71-22-18-22-39.42V153c0-29.71,18.84-51.14,52.57-51.14,23.12,0,33.41,8.29,40,17.44h.56c4.86-15.44,14.87-22.58,29.15-22.58v35.14a35,35,0,0,0-6.56-.57c-6.58,0-10,5.72-10,12.29v30.57c0,27.14-18.28,46.85-53.13,46.85a74.58,74.58,0,0,1-13.14-1.14c-6.3,1.71-10.58,3.71-10.58,9.42,0,5.14,9.14,7.72,38.57,7.72,38.29,0,55.13,12.85,55.13,36.85C707.65,297,678.81,311.82,641.38,311.82Zm4-42.86-30.57-.28c-4,1.43-6.56,4.57-6.56,10.28,0,7.71,8.84,12.57,35.71,12.57,18.56,0,25.43-6,25.43-12C669.38,273.82,663.66,269.25,645.38,269Zm8.86-120.84c0-11.71-5.42-18.28-15.73-18.28-10,0-16.84,6.28-16.84,18.56v28.86c0,11.71,6.56,18,16.84,18,10,0,15.73-6,15.73-18Z"/><rect class="4d5ef63e-281b-4246-a97d-e95e90007d81" x="723.43" y="105.82" width="37.43" height="151.71"/><rect class="4d5ef63e-281b-4246-a97d-e95e90007d81" x="723.38" y="42.98" width="37.44" height="36.3"/><path class="4d5ef63e-281b-4246-a97d-e95e90007d81" d="M827.67,68.64h-20.5c-2.56,21-12.28,39.86-27.15,39.86h-5.5v24.36H790v84.4c0,21.24,8.78,35,27.49,39.65,15.28,3.8,31.52-3.08,38.22-17.33a33,33,0,0,0,2.77-9.12,106.05,106.05,0,0,1-14.8,1.08c-10.58,0-16-5.14-16-15.71v-83h31V106.28h-31Z"/><line class="c4ddd65f-d95f-4905-8aa5-77b80bb9c1bf" x1="723.43" y1="105.82" x2="760.86" y2="105.82"/><path class="4d5ef63e-281b-4246-a97d-e95e90007d81" d="M37.11,392.22q-3.33-9.35-7.42-18.71a184.08,184.08,0,0,0-8.84-17.68l-8.72,36.4H0l13.16-55H22.6q1.83,2.78,3.92,6.54t4.32,8.13q2.22,4.36,4.44,9.08t4.2,9.32l7.85-33.07H59.63l-13.24,55Z"/><path class="4d5ef63e-281b-4246-a97d-e95e90007d81" d="M60.82,375.88A27.74,27.74,0,0,1,62.6,366a27,27,0,0,1,5-8.44,25,25,0,0,1,7.89-5.95A23.14,23.14,0,0,1,85.8,349.4a16.24,16.24,0,0,1,5.16.79,12.55,12.55,0,0,1,4.16,2.3,10.4,10.4,0,0,1,2.77,3.69,11.87,11.87,0,0,1,1,5,13.68,13.68,0,0,1-2,7.53,15,15,0,0,1-5.51,5A27.29,27.29,0,0,1,83,376.52a59.35,59.35,0,0,1-10.55.87,7,7,0,0,0,2.42,4.72q1.86,1.39,5.9,1.39a31.31,31.31,0,0,0,5.16-.43,25.71,25.71,0,0,0,4.92-1.31l.87,9.28a35.45,35.45,0,0,1-5.67,1.58,36.93,36.93,0,0,1-7.49.71,21.85,21.85,0,0,1-8.29-1.39,14.07,14.07,0,0,1-8.52-9.32A23.31,23.31,0,0,1,60.82,375.88Zm23.07-17.13a10,10,0,0,0-7.1,2.9,14,14,0,0,0-4,7.65,44.14,44.14,0,0,0,7.93-.83,17.23,17.23,0,0,0,4.68-1.63,5.3,5.3,0,0,0,2.22-2.06,4.93,4.93,0,0,0,.56-2.22Q88.18,358.76,83.89,358.75Z"/><path class="4d5ef63e-281b-4246-a97d-e95e90007d81" d="M110.85,392.22q-2.06-7.93-3.73-18.51a222,222,0,0,1-2.3-23.19H117q.08,3.09.24,6.78t.4,7.41q.24,3.73.55,7.25t.71,6.38q1.75-2.38,3.93-5.87t4.24-7.3q2.06-3.81,3.81-7.65a57,57,0,0,0,2.7-7h12.53A103,103,0,0,1,141,362.09q-3.05,5.95-6.54,11.5T127.38,384q-3.61,4.84-6.7,8.25Z"/><path class="4d5ef63e-281b-4246-a97d-e95e90007d81" d="M146.14,375.88a27.74,27.74,0,0,1,1.78-9.83,27,27,0,0,1,5-8.44,25,25,0,0,1,7.89-5.95,23.14,23.14,0,0,1,10.27-2.26,16.24,16.24,0,0,1,5.16.79,12.55,12.55,0,0,1,4.16,2.3,10.4,10.4,0,0,1,2.77,3.69,11.87,11.87,0,0,1,1,5,13.68,13.68,0,0,1-2,7.53,15,15,0,0,1-5.51,5,27.29,27.29,0,0,1-8.37,2.81,59.35,59.35,0,0,1-10.55.87,7,7,0,0,0,2.42,4.72q1.86,1.39,5.9,1.39a31.31,31.31,0,0,0,5.16-.43,25.71,25.71,0,0,0,4.92-1.31l.87,9.28a35.45,35.45,0,0,1-5.67,1.58,36.93,36.93,0,0,1-7.49.71,21.85,21.85,0,0,1-8.29-1.39,14.07,14.07,0,0,1-8.52-9.32A23.31,23.31,0,0,1,146.14,375.88Zm23.07-17.13a10,10,0,0,0-7.1,2.9,14,14,0,0,0-4,7.65,44.14,44.14,0,0,0,7.93-.83,17.23,17.23,0,0,0,4.68-1.63,5.3,5.3,0,0,0,2.22-2.06,4.93,4.93,0,0,0,.56-2.22Q173.5,358.76,169.21,358.75Z"/><path class="4d5ef63e-281b-4246-a97d-e95e90007d81" d="M217.66,360.66q-1.59-.4-3.13-.75a21.65,21.65,0,0,0-4.56-.36,17.1,17.1,0,0,0-2.46.2,19.63,19.63,0,0,0-2.22.44l-7.69,32H185.78l9.52-39.49q3.41-1.11,7.65-2.1a42.12,42.12,0,0,1,9.56-1,30.23,30.23,0,0,1,4.4.36,16.75,16.75,0,0,1,4.24,1.15Z"/><path class="4d5ef63e-281b-4246-a97d-e95e90007d81" d="M271,330.68a22.94,22.94,0,0,1,6.22.75,27.82,27.82,0,0,1,4,1.39l-4,9.28A12.69,12.69,0,0,0,274,341a18.47,18.47,0,0,0-3.45-.36q-4.36,0-6.46,2.22a11.91,11.91,0,0,0-2.9,5.55l-.48,2.06h14l-2.38,9.67H258.42l-4.84,20.22q-2.7,11.34-5.87,17.64t-7,9.16l-10.55-1.51A22.76,22.76,0,0,0,234,401a47.74,47.74,0,0,0,3.13-5.87,55.26,55.26,0,0,0,2.38-6.3q1-3.21,1.63-6l8.25-34.57q2-8.4,7.14-13T271,330.68Z"/><path class="4d5ef63e-281b-4246-a97d-e95e90007d81" d="M292.2,393.33a19.17,19.17,0,0,1-7.3-1.27,13.5,13.5,0,0,1-5.11-3.57,15.42,15.42,0,0,1-3.05-5.43,22.08,22.08,0,0,1-1-6.94,30.6,30.6,0,0,1,1.55-9.52,27.15,27.15,0,0,1,4.56-8.56,24.35,24.35,0,0,1,7.37-6.22,20.25,20.25,0,0,1,10-2.42,19.26,19.26,0,0,1,7.26,1.27,13.49,13.49,0,0,1,5.15,3.57,15.43,15.43,0,0,1,3.05,5.43,22.17,22.17,0,0,1,1,6.94,31.38,31.38,0,0,1-1.51,9.52,27.5,27.5,0,0,1-4.44,8.56,23.3,23.3,0,0,1-7.33,6.23A20.84,20.84,0,0,1,292.2,393.33Zm5.87-33.94a7.39,7.39,0,0,0-4.6,1.51,12.91,12.91,0,0,0-3.33,3.81,18.83,18.83,0,0,0-2,5,21.68,21.68,0,0,0-.67,5.19,12.49,12.49,0,0,0,1.27,6.23q1.27,2.18,4.6,2.18a7.39,7.39,0,0,0,4.6-1.51,13,13,0,0,0,3.33-3.81,18.81,18.81,0,0,0,2-5,21.81,21.81,0,0,0,.67-5.19,12.52,12.52,0,0,0-1.27-6.23Q301.4,359.39,298.06,359.39Z"/><path class="4d5ef63e-281b-4246-a97d-e95e90007d81" d="M350.72,360.66q-1.59-.4-3.13-.75a21.65,21.65,0,0,0-4.56-.36,17.1,17.1,0,0,0-2.46.2,19.63,19.63,0,0,0-2.22.44l-7.69,32H318.84l9.52-39.49q3.41-1.11,7.65-2.1a42.12,42.12,0,0,1,9.56-1,30.23,30.23,0,0,1,4.4.36,16.75,16.75,0,0,1,4.24,1.15Z"/><path class="4d5ef63e-281b-4246-a97d-e95e90007d81" d="M387.35,387a38.27,38.27,0,0,1-3.13,8.92,20.7,20.7,0,0,1-4.84,6.26,18.85,18.85,0,0,1-6.94,3.73,32.56,32.56,0,0,1-9.44,1.23,33.07,33.07,0,0,1-8.4-.91,34.74,34.74,0,0,1-6.19-2.26l4-9.36a40.8,40.8,0,0,0,5.11,1.9,23.22,23.22,0,0,0,6.54.79q5.07,0,7.65-2.26a10.6,10.6,0,0,0,3.37-5.83l.32-1.51A17.65,17.65,0,0,1,372,389a14.55,14.55,0,0,1-3.77.48,16.32,16.32,0,0,1-6.42-1.15,11.38,11.38,0,0,1-4.4-3.21,13.54,13.54,0,0,1-2.54-4.88,21.54,21.54,0,0,1-.83-6.15,24.43,24.43,0,0,1,2.22-10.67,22.74,22.74,0,0,1,5.91-7.73,25.54,25.54,0,0,1,8.48-4.68,31.79,31.79,0,0,1,10-1.59,36.19,36.19,0,0,1,7.53.79,33.94,33.94,0,0,1,7.3,2.46Zm-5.23-27.36a14.82,14.82,0,0,0-3.33-.32,13,13,0,0,0-5.39,1.07,12.59,12.59,0,0,0-4.08,2.89,12.43,12.43,0,0,0-2.62,4.4,16.35,16.35,0,0,0-.91,5.51,13.91,13.91,0,0,0,.24,2.66,5.47,5.47,0,0,0,.87,2.14,4.52,4.52,0,0,0,1.74,1.47,6.17,6.17,0,0,0,2.77.56,15,15,0,0,0,3-.4,6.94,6.94,0,0,0,3.37-1.82Z"/><path class="4d5ef63e-281b-4246-a97d-e95e90007d81" d="M398.69,375.88a27.74,27.74,0,0,1,1.78-9.83,27,27,0,0,1,5-8.44,25,25,0,0,1,7.89-5.95,23.14,23.14,0,0,1,10.27-2.26,16.24,16.24,0,0,1,5.16.79,12.55,12.55,0,0,1,4.16,2.3,10.4,10.4,0,0,1,2.77,3.69,11.87,11.87,0,0,1,1,5,13.68,13.68,0,0,1-2,7.53,15,15,0,0,1-5.51,5,27.29,27.29,0,0,1-8.37,2.81,59.35,59.35,0,0,1-10.55.87,7,7,0,0,0,2.42,4.72q1.86,1.39,5.9,1.39a31.31,31.31,0,0,0,5.16-.43,25.71,25.71,0,0,0,4.92-1.31l.87,9.28a35.45,35.45,0,0,1-5.67,1.58,36.93,36.93,0,0,1-7.49.71,21.85,21.85,0,0,1-8.29-1.39,14.07,14.07,0,0,1-8.52-9.32A23.31,23.31,0,0,1,398.69,375.88Zm23.07-17.13a10,10,0,0,0-7.1,2.9,14,14,0,0,0-4,7.65,44.14,44.14,0,0,0,7.93-.83,17.23,17.23,0,0,0,4.68-1.63,5.3,5.3,0,0,0,2.22-2.06,4.93,4.93,0,0,0,.56-2.22Q426,358.76,421.76,358.75Z"/><path class="4d5ef63e-281b-4246-a97d-e95e90007d81" d="M449.67,340.12l12.29-1.9-3,12.29h13.16l-2.38,9.67H456.65l-3.49,14.59a19.3,19.3,0,0,0-.59,3.41,5.54,5.54,0,0,0,.4,2.74,3.65,3.65,0,0,0,1.78,1.78,7.92,7.92,0,0,0,3.49.63,18.77,18.77,0,0,0,3.69-.36,27.17,27.17,0,0,0,3.61-1l.87,9a42.21,42.21,0,0,1-5.15,1.51,29.91,29.91,0,0,1-6.58.63q-5.47,0-8.48-1.63a9.37,9.37,0,0,1-4.28-4.44,14,14,0,0,1-1.11-6.46,41.52,41.52,0,0,1,1.11-7.69Z"/><path class="4d5ef63e-281b-4246-a97d-e95e90007d81" d="M501.69,340.12l12.29-1.9-3,12.29h13.16l-2.38,9.67H508.67l-3.49,14.59a19.3,19.3,0,0,0-.59,3.41,5.54,5.54,0,0,0,.4,2.74,3.65,3.65,0,0,0,1.78,1.78,7.92,7.92,0,0,0,3.49.63,18.77,18.77,0,0,0,3.69-.36,27.17,27.17,0,0,0,3.61-1l.87,9a42.21,42.21,0,0,1-5.15,1.51,29.91,29.91,0,0,1-6.58.63q-5.47,0-8.48-1.63a9.37,9.37,0,0,1-4.28-4.44,14,14,0,0,1-1.11-6.46,41.52,41.52,0,0,1,1.11-7.69Z"/><path class="4d5ef63e-281b-4246-a97d-e95e90007d81" d="M541,393.33a19.17,19.17,0,0,1-7.3-1.27,13.5,13.5,0,0,1-5.11-3.57,15.42,15.42,0,0,1-3.05-5.43,22.08,22.08,0,0,1-1-6.94,30.6,30.6,0,0,1,1.55-9.52,27.15,27.15,0,0,1,4.56-8.56,24.35,24.35,0,0,1,7.37-6.22,20.25,20.25,0,0,1,10-2.42,19.26,19.26,0,0,1,7.26,1.27,13.49,13.49,0,0,1,5.15,3.57,15.43,15.43,0,0,1,3.05,5.43,22.17,22.17,0,0,1,1,6.94,31.38,31.38,0,0,1-1.51,9.52,27.5,27.5,0,0,1-4.44,8.56,23.3,23.3,0,0,1-7.33,6.23A20.84,20.84,0,0,1,541,393.33Zm5.87-33.94a7.39,7.39,0,0,0-4.6,1.51A12.91,12.91,0,0,0,539,364.7a18.83,18.83,0,0,0-2,5,21.68,21.68,0,0,0-.67,5.19,12.49,12.49,0,0,0,1.27,6.23q1.27,2.18,4.6,2.18a7.39,7.39,0,0,0,4.6-1.51,13,13,0,0,0,3.33-3.81,18.81,18.81,0,0,0,2-5,21.81,21.81,0,0,0,.67-5.19,12.52,12.52,0,0,0-1.27-6.23Q550.22,359.39,546.89,359.39Z"/><path class="4d5ef63e-281b-4246-a97d-e95e90007d81" d="M589.07,375.57a29.3,29.3,0,0,1,1.74-10.15,25,25,0,0,1,5-8.33,23.38,23.38,0,0,1,7.89-5.63A25.23,25.23,0,0,1,614,349.4a27.6,27.6,0,0,1,6.38.67,25.42,25.42,0,0,1,5.12,1.78l-4,9.2q-1.59-.63-3.29-1.15a14.55,14.55,0,0,0-4.17-.52,11.64,11.64,0,0,0-9.36,4q-3.41,4-3.41,10.9a11.19,11.19,0,0,0,1.75,6.54q1.74,2.5,6.42,2.5a20.42,20.42,0,0,0,4.44-.48,21.48,21.48,0,0,0,3.8-1.19l.87,9.44a40.38,40.38,0,0,1-4.88,1.55,26.69,26.69,0,0,1-6.46.67,21.54,21.54,0,0,1-8.32-1.43,15.74,15.74,0,0,1-5.63-3.85,14.51,14.51,0,0,1-3.21-5.67A23.28,23.28,0,0,1,589.07,375.57Z"/><path class="4d5ef63e-281b-4246-a97d-e95e90007d81" d="M641.64,393.33a19.17,19.17,0,0,1-7.3-1.27,13.5,13.5,0,0,1-5.11-3.57,15.42,15.42,0,0,1-3.05-5.43,22.08,22.08,0,0,1-1-6.94,30.6,30.6,0,0,1,1.55-9.52,27.15,27.15,0,0,1,4.56-8.56,24.35,24.35,0,0,1,7.37-6.22,20.25,20.25,0,0,1,10-2.42,19.26,19.26,0,0,1,7.26,1.27,13.49,13.49,0,0,1,5.15,3.57,15.43,15.43,0,0,1,3.05,5.43,22.17,22.17,0,0,1,1,6.94,31.38,31.38,0,0,1-1.51,9.52,27.5,27.5,0,0,1-4.44,8.56,23.3,23.3,0,0,1-7.33,6.23A20.84,20.84,0,0,1,641.64,393.33Zm5.87-33.94a7.39,7.39,0,0,0-4.6,1.51,12.91,12.91,0,0,0-3.33,3.81,18.83,18.83,0,0,0-2,5,21.68,21.68,0,0,0-.67,5.19,12.49,12.49,0,0,0,1.27,6.23q1.27,2.18,4.6,2.18a7.39,7.39,0,0,0,4.6-1.51,13,13,0,0,0,3.33-3.81,18.81,18.81,0,0,0,2-5,21.81,21.81,0,0,0,.67-5.19,12.52,12.52,0,0,0-1.27-6.23Q650.84,359.39,647.51,359.39Z"/><path class="4d5ef63e-281b-4246-a97d-e95e90007d81" d="M677.88,352.41q1.35-.4,2.9-.91t3.49-1a42.35,42.35,0,0,1,4.36-.71,49.69,49.69,0,0,1,5.59-.28,17.92,17.92,0,0,1,6.3,1,14.11,14.11,0,0,1,4.56,2.85,39.64,39.64,0,0,1,5.83-2.74,19.54,19.54,0,0,1,6.78-1.07,18.32,18.32,0,0,1,6.38,1,11.38,11.38,0,0,1,4.4,2.85,11.24,11.24,0,0,1,2.54,4.44,19.22,19.22,0,0,1,.79,5.67,24.47,24.47,0,0,1-.2,3,26.26,26.26,0,0,1-.6,3.17l-5.39,22.52H713.8l5.23-22q.24-1.11.51-2.5a13.94,13.94,0,0,0,.28-2.74,7,7,0,0,0-1-3.85q-1-1.62-4-1.63a8.54,8.54,0,0,0-3.17.59,26.29,26.29,0,0,0-2.7,1.23,4.9,4.9,0,0,1,.16,1.19v1a24.47,24.47,0,0,1-.2,3,26.81,26.81,0,0,1-.59,3.17l-5.39,22.52H691l5.23-22q.24-1.11.51-2.5a14,14,0,0,0,.28-2.74,7,7,0,0,0-1-3.85q-1-1.62-4-1.63a16.14,16.14,0,0,0-2.14.12q-.87.12-2.06.36l-7.69,32.27H668.28Z"/><path class="4d5ef63e-281b-4246-a97d-e95e90007d81" d="M745,352.41q1.35-.4,2.9-.91t3.49-1a42.35,42.35,0,0,1,4.36-.71,49.69,49.69,0,0,1,5.59-.28,17.92,17.92,0,0,1,6.3,1,14.11,14.11,0,0,1,4.56,2.85,39.64,39.64,0,0,1,5.83-2.74,19.54,19.54,0,0,1,6.78-1.07,18.32,18.32,0,0,1,6.38,1,11.38,11.38,0,0,1,4.4,2.85,11.24,11.24,0,0,1,2.54,4.44,19.22,19.22,0,0,1,.79,5.67,24.47,24.47,0,0,1-.2,3,26.26,26.26,0,0,1-.6,3.17l-5.39,22.52H780.88l5.23-22q.24-1.11.51-2.5a13.94,13.94,0,0,0,.28-2.74,7,7,0,0,0-1-3.85q-1-1.62-4-1.63a8.54,8.54,0,0,0-3.17.59,26.29,26.29,0,0,0-2.7,1.23,4.9,4.9,0,0,1,.16,1.19v1a24.47,24.47,0,0,1-.2,3,26.81,26.81,0,0,1-.59,3.17l-5.39,22.52H758.12l5.23-22q.24-1.11.51-2.5a14,14,0,0,0,.28-2.74,7,7,0,0,0-1-3.85q-1-1.62-4-1.63a16.14,16.14,0,0,0-2.14.12q-.87.12-2.06.36l-7.69,32.27H735.37Z"/><path class="4d5ef63e-281b-4246-a97d-e95e90007d81" d="M814.19,392.22H802.45l9.91-41.71h11.82Zm5.71-46.78a7.28,7.28,0,0,1-4.44-1.47,5.21,5.21,0,0,1-2-4.48,7.4,7.4,0,0,1,.67-3.13,8.29,8.29,0,0,1,1.78-2.54,8.59,8.59,0,0,1,2.58-1.7,7.81,7.81,0,0,1,3.13-.63,7.29,7.29,0,0,1,4.44,1.47,5.21,5.21,0,0,1,2,4.48,7.44,7.44,0,0,1-.67,3.13,8.33,8.33,0,0,1-1.78,2.54,8.61,8.61,0,0,1-2.58,1.7A7.8,7.8,0,0,1,819.89,345.43Z"/><path class="4d5ef63e-281b-4246-a97d-e95e90007d81" d="M836.23,340.12l12.29-1.9-3,12.29h13.16l-2.38,9.67H843.21l-3.49,14.59a19.3,19.3,0,0,0-.59,3.41,5.54,5.54,0,0,0,.4,2.74,3.65,3.65,0,0,0,1.78,1.78,7.92,7.92,0,0,0,3.49.63,18.77,18.77,0,0,0,3.69-.36,27.17,27.17,0,0,0,3.61-1l.87,9a42.21,42.21,0,0,1-5.15,1.51,29.91,29.91,0,0,1-6.58.63q-5.47,0-8.48-1.63a9.37,9.37,0,0,1-4.28-4.44,14,14,0,0,1-1.11-6.46,41.52,41.52,0,0,1,1.11-7.69Z"/></g></g></svg>