<svg xmlns="http://www.w3.org/2000/svg" viewBox="0 0 65.52 73.11"><defs><style>.\30 dbeb0b6-7c22-42b6-86f6-58a4797806d1{fill:#e5e5e5;}</style></defs><title>notify</title><g id="310fab75-5b32-47cf-a517-08acd9c69299" data-name="Layer 2"><g id="3ac53df3-8d8c-4234-8608-f2e9dd5851b6" data-name="landing_fg"><path class="0dbeb0b6-7c22-42b6-86f6-58a4797806d1" d="M36.76,4.67V9.91h-10V4.67C26.76,2.09,29.45,0,32.07,0A4.71,4.71,0,0,1,35.4,1.37,4.59,4.59,0,0,1,36.76,4.67Z"/><path class="0dbeb0b6-7c22-42b6-86f6-58a4797806d1" d="M58.76,31.09V56.91h-53V31.09c0-14.34,12-26,26.63-26a26.52,26.52,0,0,1,18.66,7.6A25.67,25.67,0,0,1,58.76,31.09Z"/><polygon class="0dbeb0b6-7c22-42b6-86f6-58a4797806d1" points="65.5 60.91 0 60.91 5.33 52.91 60.02 52.91 65.5 60.91"/><polygon class="0dbeb0b6-7c22-42b6-86f6-58a4797806d1" points="65.52 60.91 0 60.91 5.33 52.14 5.49 52.04 16.38 33.56 32.76 5.68 49.14 33.63 60.02 51.87 65.52 60.91"/><path class="0dbeb0b6-7c22-42b6-86f6-58a4797806d1" d="M40.08,65.91c0,3-3.28,7.2-7.32,7.2s-7.32-4.2-7.32-7.2Z"/></g></g></svg>