<svg xmlns="http://www.w3.org/2000/svg" viewBox="0 0 31.01 25.2"><defs><style>.c513bfba-b5d3-4bb5-b411-e22327e71afa{fill:#fff;}</style></defs><title>twitter</title><g id="333a3c2a-af67-4b0a-b1f7-fff88ec8be4b" data-name="Layer 2"><g id="c510f43b-ac36-4678-958f-ee9394826bec" data-name="landing_fg"><path class="c513bfba-b5d3-4bb5-b411-e22327e71afa" d="M9.75,25.2c11.7,0,18.1-9.69,18.1-18.1,0-.28,0-.55,0-.82A12.94,12.94,0,0,0,31,3a12.7,12.7,0,0,1-3.65,1A6.38,6.38,0,0,0,30.15.47a12.75,12.75,0,0,1-4,1.54,6.37,6.37,0,0,0-10.84,5.8A18.06,18.06,0,0,1,2.16,1.17a6.37,6.37,0,0,0,2,8.49,6.32,6.32,0,0,1-2.88-.8s0,.05,0,.08a6.36,6.36,0,0,0,5.1,6.24,6.35,6.35,0,0,1-2.87.11,6.37,6.37,0,0,0,5.94,4.42,12.77,12.77,0,0,1-7.9,2.72A13,13,0,0,1,0,22.34,18,18,0,0,0,9.75,25.2"/></g></g></svg>