<svg xmlns="http://www.w3.org/2000/svg" viewBox="0 0 379.6 169.42"><defs><style>.\34 36c0867-c4db-4076-968f-c6a52442b27d{fill:#009797;stroke-width:1.73px;}.\34 36c0867-c4db-4076-968f-c6a52442b27d,.\38 a5849ac-f90a-4ee9-b191-e19821591d6c{stroke:#333;}.\34 36c0867-c4db-4076-968f-c6a52442b27d,.\38 a5849ac-f90a-4ee9-b191-e19821591d6c,.\39 3d2ae76-4606-4e49-a9f4-f3a92b13b87a{stroke-miterlimit:10;}.\38 a5849ac-f90a-4ee9-b191-e19821591d6c,.f397a6af-6f56-42f1-a755-bfdc42753bf4{fill:#be5d59;}.\38 a5849ac-f90a-4ee9-b191-e19821591d6c{stroke-width:1.58px;}.\39 3d2ae76-4606-4e49-a9f4-f3a92b13b87a{fill:none;stroke:#000;stroke-width:1.33px;}.\37 b2f95f8-9089-4fe2-ab15-ec2ffe27c895{fill:#333;}.e6ebd7a8-bccc-4a6c-bf36-8aa52816eb86{fill:#9eadb3;}</style></defs><title>whalebyte</title><g id="a4fafba8-02f8-42f7-b7d2-da3349e3a9f2" data-name="Layer 2"><g id="6416a8d6-632b-451d-a1a8-916f5b755988" data-name="landing_fg"><path class="436c0867-c4db-4076-968f-c6a52442b27d" d="M46.88,44.08H40.62l2.67-6.26h3.58Z"/><path class="436c0867-c4db-4076-968f-c6a52442b27d" d="M51.47,35.35H45.21v-2l1.84-4.27h4.41Z"/><path class="436c0867-c4db-4076-968f-c6a52442b27d" d="M67.34,51.31,67,55.17a4.31,4.31,0,0,1-4.76,3.93h0A14.82,14.82,0,0,0,60.53,59l3.53,23c.13,0-.42,8.18-.48,8.39q-1.2,4.16-2.65,8.44l-.33,1c-.07.19-.11.42-.18.62-.5-.09-1.06-.19-1.63-.26a1,1,0,0,0-.44,0l-2.79.35a3.23,3.23,0,0,0-1.86.83,2.17,2.17,0,0,0-.48,3.05c.63,1.24,2,1.12,3.37,1.36h0a1.72,1.72,0,0,1,1,.57,2.05,2.05,0,0,1,.48,1.84c-.17.55-1,3.28-1,3.28.07.18-1.53,4.85-1.85,5.67-.52,1.29-2.52,9.69-6,20.45-1.07,3.36-2.29,6.94-3.63,10.62-1.25,3.43-2.43,7-3.52,10.45a7.42,7.42,0,0,1-1.06,2.12,14,14,0,0,1-3.84,3.71l2.87-26.89.72-6.69a.82.82,0,0,0-1.58-.35l-3,7L25.13,163.93a7.46,7.46,0,0,1-6.44,4.59c-5.39.27-10.74-1.07-14.47-5.38A12.42,12.42,0,0,1,1,153.5c.91-7,3.34-15.65,6.84-25.47.21-.61.44-1.22.66-1.83l14-38.12a66.42,66.42,0,0,1,6.07-14.27,1.29,1.29,0,0,0,.22-.65l.53-10.09s.91-.27,1.57-.5A4,4,0,0,0,31.93,62a7.24,7.24,0,0,0,1.86-2.14c.17-.16,1.62-3.53,3.76-8.57h12.3V45.05H56.1v6.26Z"/><path class="436c0867-c4db-4076-968f-c6a52442b27d" d="M57.72,19.8H51.47v-.72c.87-1.95,1.72-3.81,2.52-5.54h3.74Z"/><rect class="436c0867-c4db-4076-968f-c6a52442b27d" x="53.78" y="23.64" width="6.26" height="6.26"/><rect class="436c0867-c4db-4076-968f-c6a52442b27d" x="54.59" y="36.28" width="6.26" height="6.26"/><path class="436c0867-c4db-4076-968f-c6a52442b27d" d="M66.29,7.12H60V2.28A3.89,3.89,0,0,1,62.79.86c1.49,0,2.79,1.25,3.5,3.3Z"/><rect class="436c0867-c4db-4076-968f-c6a52442b27d" x="61.04" y="10.41" width="6.26" height="6.26"/><path class="436c0867-c4db-4076-968f-c6a52442b27d" d="M64.87,37.82h3.72L68,44.08H64.87Z"/><path class="436c0867-c4db-4076-968f-c6a52442b27d" d="M65.16,29.1H69.4l-.58,6.26H65.16Z"/><rect class="436c0867-c4db-4076-968f-c6a52442b27d" x="63.16" y="19.8" width="6.26" height="6.26"/><path class="8a5849ac-f90a-4ee9-b191-e19821591d6c" d="M73.58,101.19A39.76,39.76,0,0,1,59.74,106c-1.28.21-2.59.35-3.92.45a2.32,2.32,0,0,1-2.06-.93c-1.51-2-2.1-4.06.4-6A2.28,2.28,0,0,1,55.28,99l4.1-.5c.74.13,1.49.25,2.2.34a36.92,36.92,0,0,0,11.3,0C76.66,97.9,76.84,98.71,73.58,101.19Z"/><path class="93d2ae76-4606-4e49-a9f4-f3a92b13b87a" d="M26.54,112.36"/><path class="7b2f95f8-9089-4fe2-ab15-ec2ffe27c895" d="M31.66,122.18a1.92,1.92,0,0,0-1.36.94c-.17.28-.4.52-.59.79a.83.83,0,0,1-.73.33,9,9,0,0,1,.22-1,4.66,4.66,0,0,1,1.15-1.95,6.82,6.82,0,0,1,2-1.34c.73-.31,1.44-.69,2.16-1a.83.83,0,0,1,.46-.11,1.84,1.84,0,0,0,1.67-.55,6.2,6.2,0,0,0,1.74-3.16,2.82,2.82,0,0,0,.11-.69.46.46,0,0,0-.15-.37.46.46,0,0,0-.4,0c-.75.53-1.49,1.08-2.22,1.63a6.42,6.42,0,0,1-1.81,1,14,14,0,0,0-2,1c-.31.16-.59.38-.91.54a3.54,3.54,0,0,0-1.08.84,10.44,10.44,0,0,1-.8.83,7.23,7.23,0,0,0-1.47,2,5.94,5.94,0,0,0-.57,3c0,.18,0,.36,0,.54a.88.88,0,0,0,.6.9,1.34,1.34,0,0,0,1.37-.15,7.45,7.45,0,0,0,.76-.79,14,14,0,0,1,1.87-1.86c.51-.41.52-.68.11-1.18C31.8,122.31,31.73,122.25,31.66,122.18Z"/><path class="7b2f95f8-9089-4fe2-ab15-ec2ffe27c895" d="M30.48,127.18c.38-.14.75-.25,1.1-.4s.59-.32.88-.47a2.28,2.28,0,0,1,1.29-.27c.54.05,1.08.1,1.62.13a1.3,1.3,0,0,0,1.24-.47c.22-.29.45-.58.65-.88.46-.67.09-1.26-.3-1.79a2.87,2.87,0,0,0-1.41-1.12,4.13,4.13,0,0,1-.48-.23c0-.21.07-.4.09-.59.05-.4,0-.57-.34-.64s-.42.17-.54.37a5.07,5.07,0,0,0-.3.58c-.35.81-.7,1.63-1.06,2.44a2.1,2.1,0,0,1-.38.59c-.61.64-1.23,1.26-1.85,1.88A.65.65,0,0,0,30.48,127.18Z"/><path class="7b2f95f8-9089-4fe2-ab15-ec2ffe27c895" d="M104.25,61V65l4-.2v.05a7.26,7.26,0,0,0-1.29,2.2q-.52,1.33-.88,2.59L103.2,80.72q-.52,1.93-1,3.72t-1,3.57h-.05q-.44-2-.89-3.88t-1-3.72L93.25,61H88.49L83.59,77.14c-.09.26-.21.66-.36,1.2l-.53,1.85-.62,2.2-.62,2.23q-.3,1.07-.53,2c-.15.59-.27,1-.36,1.35h-.05q-.23-1.26-.45-2.25t-.44-1.85q-.22-.86-.44-1.66c-.15-.53-.3-1.1-.45-1.7L75.58,68.4c-.09-.33-.15-.63-.21-.9a3,3,0,0,1-.05-.77,1.93,1.93,0,0,1,.81-1.79,4.27,4.27,0,0,1,2.25-.5h.31V61H63.16V65L66,64.87a4.66,4.66,0,0,0,.13,1c.09.38.2.79.34,1.22s.3.89.48,1.35.36.91.55,1.34l9.4,28.41h4.59l6-19.78q.54-1.78.91-3.43T89,71.55h.05q.36,1.8.79,3.75a38.77,38.77,0,0,0,1.12,4l6.26,18.88h4.66l8.63-28.13a13.45,13.45,0,0,1,1.09-2.6,7.18,7.18,0,0,1,1.31-1.71,4.69,4.69,0,0,1,1.51-1,5.52,5.52,0,0,1,1.68-.36V61Z"/><path class="7b2f95f8-9089-4fe2-ab15-ec2ffe27c895" d="M145.67,94c0-.39.06-.81.09-1.25s0-.86.06-1.28,0-.8,0-1.16,0-.67,0-.93V82.34a24.65,24.65,0,0,0-.49-5.25,9.29,9.29,0,0,0-1.56-3.63,6.39,6.39,0,0,0-2.76-2.1,11,11,0,0,0-4.11-.68,8.25,8.25,0,0,0-1.82.23,15.1,15.1,0,0,0-2.06.63,17.89,17.89,0,0,0-2,.93,11.33,11.33,0,0,0-1.76,1.15V58.07h-2.86a3.47,3.47,0,0,1-.89.54,9,9,0,0,1-1.6.51,20.48,20.48,0,0,1-2.4.39,29.33,29.33,0,0,1-3.23.16v4l3.71-.15q-.13,1.18-.17,2.42c0,.82,0,1.55,0,2.19V89.78c0,.7,0,1.34-.08,1.92a4.12,4.12,0,0,1-.39,1.48,2.15,2.15,0,0,1-.94,1,3.76,3.76,0,0,1-1.74.34V97.9h13.83v-4l-3.43.15q.05-.59.09-1.25t.06-1.27q0-.62,0-1.16c0-.36,0-.67,0-.93V77.49a8.17,8.17,0,0,1,2.18-1.35,6.93,6.93,0,0,1,2.64-.58,3.54,3.54,0,0,1,3.22,1.62,9.89,9.89,0,0,1,1.06,5.09l0,7.51c0,.7,0,1.34-.08,1.92a4.11,4.11,0,0,1-.39,1.48,2.14,2.14,0,0,1-.94,1,3.75,3.75,0,0,1-1.74.34V97.9H149.1v-4Z"/><path class="7b2f95f8-9089-4fe2-ab15-ec2ffe27c895" d="M173.49,94q.05-.59.09-1.25t.05-1.28c0-.41,0-.8,0-1.16s0-.67,0-.93q0-1.34,0-2.37c0-.69,0-1.34,0-2s0-1.28,0-2,0-1.47,0-2.36a14,14,0,0,0-.66-4.53,8,8,0,0,0-1.91-3.14,7.65,7.65,0,0,0-3.06-1.83,13.33,13.33,0,0,0-4.13-.59,18.1,18.1,0,0,0-4.35.5,12.65,12.65,0,0,0-3.54,1.42,7.43,7.43,0,0,0-2.37,2.2,5,5,0,0,0-.86,2.83,4.3,4.3,0,0,0,.22,1.39,3.29,3.29,0,0,0,.63,1.12,3.1,3.1,0,0,0,1,.77,3.44,3.44,0,0,0,1.39.32,3.78,3.78,0,0,0,1.6-.31,3.39,3.39,0,0,0,1.11-.79,3.09,3.09,0,0,0,.65-1.06,3.43,3.43,0,0,0,.2-1.15,4.89,4.89,0,0,0-.12-1,2,2,0,0,0-.53-1,4.68,4.68,0,0,1,1.6-1.08,5.91,5.91,0,0,1,2-.44,3.8,3.8,0,0,1,1.8.34,3,3,0,0,1,1.16,1,4.17,4.17,0,0,1,.62,1.53,9.82,9.82,0,0,1,.18,1.94V82a31,31,0,0,0-3.55.36,24,24,0,0,0-3.41.8,17.24,17.24,0,0,0-3.05,1.29,10.56,10.56,0,0,0-2.46,1.83,8,8,0,0,0-1.63,2.4,7.35,7.35,0,0,0-.59,3,7.75,7.75,0,0,0,.49,2.8,6.6,6.6,0,0,0,1.4,2.23,6.22,6.22,0,0,0,2.25,1.48,8.23,8.23,0,0,0,3,.53,11.46,11.46,0,0,0,4-.73,10.69,10.69,0,0,0,3.76-2.54h.05q0,.67.06,1.17t.14,1.25h10v-4Zm-7.16-2.38a6.27,6.27,0,0,1-1.88,1.42,5.14,5.14,0,0,1-2.29.52,3.87,3.87,0,0,1-1.09-.15,2.53,2.53,0,0,1-.93-.49,2.62,2.62,0,0,1-.66-.85,3,3,0,0,1-.28-1.27,3.71,3.71,0,0,1,.55-2,5,5,0,0,1,1.52-1.51,8.53,8.53,0,0,1,2.28-1,15.62,15.62,0,0,1,2.81-.54Z"/><path class="7b2f95f8-9089-4fe2-ab15-ec2ffe27c895" d="M189.49,94q.05-.59.09-1.25t.06-1.28q0-.62,0-1.16c0-.36,0-.67,0-.93V58.07h-2.86a3.53,3.53,0,0,1-.89.53,9,9,0,0,1-1.6.51,20.08,20.08,0,0,1-2.4.39,29.33,29.33,0,0,1-3.23.16v4l3.71-.15c-.08.79-.14,1.6-.17,2.42s0,1.55,0,2.19V89.78q0,1.06-.08,1.92a4.12,4.12,0,0,1-.39,1.48,2.15,2.15,0,0,1-.94,1,3.76,3.76,0,0,1-1.74.34V97.9h13.83v-4Z"/><path class="7b2f95f8-9089-4fe2-ab15-ec2ffe27c895" d="M218.81,90.07a10.7,10.7,0,0,1-1.93,1.87,11.55,11.55,0,0,1-2,1.22,9.48,9.48,0,0,1-2,.67,8.65,8.65,0,0,1-1.78.21,7.28,7.28,0,0,1-3.48-.76,6.24,6.24,0,0,1-2.29-2.09A9.27,9.27,0,0,1,204,88a19,19,0,0,1-.4-4l17.34-.31a18.44,18.44,0,0,0-.45-4.51,13.05,13.05,0,0,0-1.3-3.4,9.06,9.06,0,0,0-2-2.42,10.54,10.54,0,0,0-2.47-1.58,11.58,11.58,0,0,0-2.78-.86,16.8,16.8,0,0,0-2.92-.26,12.45,12.45,0,0,0-5.42,1.16,12.84,12.84,0,0,0-4.16,3.12,14.15,14.15,0,0,0-2.67,4.49,15.19,15.19,0,0,0-.94,5.32,16.82,16.82,0,0,0,.94,5.8,12.61,12.61,0,0,0,2.67,4.4,11.63,11.63,0,0,0,4.12,2.81,13.91,13.91,0,0,0,5.31,1,18.66,18.66,0,0,0,2.9-.25,13.14,13.14,0,0,0,3.17-.94,14.53,14.53,0,0,0,3.21-2,15.33,15.33,0,0,0,3-3.3ZM204.55,77.89A6.31,6.31,0,0,1,205.64,76a4.82,4.82,0,0,1,1.58-1.21,4.72,4.72,0,0,1,2.07-.44,4.53,4.53,0,0,1,1.7.31,3.34,3.34,0,0,1,1.35,1,5.2,5.2,0,0,1,.91,1.84,11.14,11.14,0,0,1,.39,2.76h-9.71A10.59,10.59,0,0,1,204.55,77.89Z"/><path class="f397a6af-6f56-42f1-a755-bfdc42753bf4" d="M251,63.23c-.13-1.54,0-3.1,0-4.65,0-2.35-1.24-3.54-3.55-3.55-6.37,0-12.74,0-19.34,0V98.25c6.27,0,12.36,0,18.45,0,3.6,0,4.44-.87,4.44-4.57,0-5.19.33-10.41-.09-15.57C250.49,73.12,251.4,68.19,251,63.23ZM231.45,59.6c4.91,0,9.71-.07,14.51.09.57,0,1.52,1.28,1.57,2a60,60,0,0,1,0,8.46c-.06.77-1.12,2.07-1.76,2.09-4.71.18-9.42.1-14.3.1Zm16,21.23c0,.73-1.12,2-1.77,2-4.69.17-9.4.09-14.37.09V77c5,0,9.91-.2,14.84.09C248.48,77.18,247.57,79.5,247.5,80.83Z"/><path class="f397a6af-6f56-42f1-a755-bfdc42753bf4" d="M332.32,86.21v12c-6.26,0-12.43.11-18.59-.06-2-.06-3.21-1.44-3.2-3.68,0-8.29,0-16.59,0-24.88a3.3,3.3,0,0,1,3.58-3.6c5.47-.12,10.94-.16,16.4.07,1.1,0,2.87,1.3,3,2.24.36,1.93-1.48,2.13-3,2.15-2.28,0-4.56.08-6.83,0-1.78,0-2.91.21-2.86,2.49,0,2.12,1.06,2.37,2.74,2.31,2.09-.08,4.19-.05,6.29,0,1.66,0,3.62.08,3.74,2.25.13,2.41-1.95,2.21-3.55,2.26-2.37.07-4.74.06-7.11,0-2.8,0-1.92,2-2,3.49s-.16,3,2.1,2.93C326,86.15,329,86.21,332.32,86.21Z"/><path class="f397a6af-6f56-42f1-a755-bfdc42753bf4" d="M270.15,89v9.13h-3.36V89c-2.08,0-3.87,0-5.67,0-3,0-4.19-1.18-4.2-4.07,0-6.18,0-12.36,0-18.78l3.3-.15V84.36c2.81,0,5.33.14,7.82-.11.56-.06,1.38-1.48,1.4-2.28.13-5.18.07-10.37.07-15.78h10.4c0,3.88,0,7.85,0,11.82,0,2.28,0,4.55,0,6.83,0,3-1.14,4.05-4.15,4.11C274,89,272.29,89,270.15,89Z"/><path class="f397a6af-6f56-42f1-a755-bfdc42753bf4" d="M283.79,78V66.19h22.72V77.95h-9V98.11H294c0-5.62-.15-11.16.06-16.68.11-2.81-.76-3.76-3.54-3.46A64.81,64.81,0,0,1,283.79,78Z"/><path class="e6ebd7a8-bccc-4a6c-bf36-8aa52816eb86" d="M83.12,123a9.39,9.39,0,0,0-.75-2.34A8.9,8.9,0,0,0,81,118.58a8.59,8.59,0,0,0-2.06-1.69,10.48,10.48,0,0,0-2.75-1.11,14,14,0,0,0-3.48-.4l-8.46,0-.11,2.26h.43l.59,0,.63,0,.56,0c0,.12-.05.28-.08.47s0,.4-.06.64,0,.48-.06.74,0,.52,0,.79l-.59,11.22a5.47,5.47,0,0,1-.21,1.39,1.59,1.59,0,0,1-.45.74,1.4,1.4,0,0,1-.68.31,7.53,7.53,0,0,1-.88.1l-.1,1.93h8.32a14.36,14.36,0,0,0,3.7-.44,11.59,11.59,0,0,0,2.94-1.21,10,10,0,0,0,2.24-1.79,10.59,10.59,0,0,0,1.58-2.19,11,11,0,0,0,1-2.4,11.61,11.61,0,0,0,.39-2.42A10.87,10.87,0,0,0,83.12,123Zm-4.41,3.05a11.49,11.49,0,0,1-.5,2.84A8.16,8.16,0,0,1,77,131.38a6.12,6.12,0,0,1-2,1.73,5.71,5.71,0,0,1-2.79.65h-.65l-.8,0H69.41c0-.12.06-.28.08-.47s0-.4.06-.64,0-.48.06-.74,0-.52,0-.79l.6-11.27a5.59,5.59,0,0,1,.2-1.34,1.67,1.67,0,0,1,.44-.76,1.37,1.37,0,0,1,.69-.33,5,5,0,0,1,1-.06,7.17,7.17,0,0,1,2.71.57,5,5,0,0,1,2,1.59,7,7,0,0,1,1.19,2.69A14.13,14.13,0,0,1,78.71,126.07Z"/><path class="e6ebd7a8-bccc-4a6c-bf36-8aa52816eb86" d="M95.45,130.71a5.42,5.42,0,0,1-.91,1.47,4.44,4.44,0,0,1-1,.86,3.42,3.42,0,0,1-1,.4,4.38,4.38,0,0,1-.85.1,2.63,2.63,0,0,1-.94-.18,2,2,0,0,1-.84-.64,3.68,3.68,0,0,1-.61-1.27,7.48,7.48,0,0,1-.24-2c.57-.09,1.16-.19,1.77-.31a18.18,18.18,0,0,0,1.78-.44,12.1,12.1,0,0,0,1.63-.63,6.33,6.33,0,0,0,1.34-.85,3.78,3.78,0,0,0,.91-1.11,3,3,0,0,0,.34-1.43,3.92,3.92,0,0,0-.32-1.66,3,3,0,0,0-.9-1.15,3.83,3.83,0,0,0-1.39-.67,7,7,0,0,0-1.78-.21,6.51,6.51,0,0,0-2.34.4,6.7,6.7,0,0,0-1.87,1.07A7.15,7.15,0,0,0,86.78,124a10.07,10.07,0,0,0-1,1.88,10.58,10.58,0,0,0-.58,2,11.13,11.13,0,0,0-.18,2,8.86,8.86,0,0,0,.41,2.84,5.23,5.23,0,0,0,1.17,2,4.75,4.75,0,0,0,1.84,1.18,6.94,6.94,0,0,0,2.42.37,7.37,7.37,0,0,0,1.7-.2,5.23,5.23,0,0,0,1.64-.72,6.72,6.72,0,0,0,1.54-1.44,10.32,10.32,0,0,0,1.36-2.36Zm-6.05-4.84a6.26,6.26,0,0,1,.54-1.49,3.46,3.46,0,0,1,.87-1.09,2,2,0,0,1,1.26-.42,1.38,1.38,0,0,1,.44.08,1.26,1.26,0,0,1,.41.24,1.33,1.33,0,0,1,.31.41,1.51,1.51,0,0,1,.14.61,2.43,2.43,0,0,1-.21,1,2.64,2.64,0,0,1-.72.94,4.87,4.87,0,0,1-1.32.76,10.1,10.1,0,0,1-2,.55A13.41,13.41,0,0,1,89.4,125.87Z"/><path class="e6ebd7a8-bccc-4a6c-bf36-8aa52816eb86" d="M109.21,130.71a5.42,5.42,0,0,1-.91,1.47,4.44,4.44,0,0,1-1,.86,3.44,3.44,0,0,1-1,.4,4.38,4.38,0,0,1-.85.1,2.63,2.63,0,0,1-.94-.18,2,2,0,0,1-.84-.64,3.68,3.68,0,0,1-.61-1.27,7.48,7.48,0,0,1-.24-2c.57-.09,1.16-.19,1.77-.31a18.31,18.31,0,0,0,1.78-.44A12.1,12.1,0,0,0,108,128a6.27,6.27,0,0,0,1.34-.85,3.76,3.76,0,0,0,.92-1.11,3,3,0,0,0,.34-1.43,3.92,3.92,0,0,0-.32-1.66,3,3,0,0,0-.9-1.15,3.83,3.83,0,0,0-1.39-.67,7,7,0,0,0-1.78-.21,6.51,6.51,0,0,0-2.34.4,6.7,6.7,0,0,0-1.87,1.07,7.15,7.15,0,0,0-1.42,1.56,10,10,0,0,0-1,1.88,10.58,10.58,0,0,0-.58,2,11.13,11.13,0,0,0-.18,2,8.91,8.91,0,0,0,.41,2.84,5.26,5.26,0,0,0,1.17,2,4.75,4.75,0,0,0,1.84,1.18,6.93,6.93,0,0,0,2.42.37,7.38,7.38,0,0,0,1.7-.2,5.23,5.23,0,0,0,1.64-.72,6.72,6.72,0,0,0,1.54-1.44,10.31,10.31,0,0,0,1.36-2.36Zm-6.05-4.84a6.26,6.26,0,0,1,.54-1.49,3.46,3.46,0,0,1,.87-1.09,2,2,0,0,1,1.26-.42,1.38,1.38,0,0,1,.44.08,1.28,1.28,0,0,1,.41.24,1.33,1.33,0,0,1,.31.41,1.51,1.51,0,0,1,.14.61,2.41,2.41,0,0,1-.21,1,2.61,2.61,0,0,1-.72.94,4.87,4.87,0,0,1-1.32.76,10.1,10.1,0,0,1-2,.55A13.41,13.41,0,0,1,103.16,125.87Z"/><path class="e6ebd7a8-bccc-4a6c-bf36-8aa52816eb86" d="M127.29,124.26a5.45,5.45,0,0,0-.83-1.77,3.72,3.72,0,0,0-1.36-1.15,4.1,4.1,0,0,0-1.86-.41,4.4,4.4,0,0,0-1.24.19,4.25,4.25,0,0,0-1.33.69,6.39,6.39,0,0,0-1.3,1.36,9.59,9.59,0,0,0-1.14,2.17h0c0-.2.07-.44.09-.72s0-.56,0-.84a4.25,4.25,0,0,0-.2-1.42,2.26,2.26,0,0,0-.54-.87,1.8,1.8,0,0,0-.77-.44,3.34,3.34,0,0,0-.91-.12,2.79,2.79,0,0,0-1.65.48,4.4,4.4,0,0,0-1.14,1.18,6.34,6.34,0,0,0-.73,1.49,12.06,12.06,0,0,0-.39,1.42l1.58.47a6.56,6.56,0,0,1,.73-1.82q.36-.51.69-.51a.38.38,0,0,1,.29.16,1.19,1.19,0,0,1,.13.69c0,.32,0,.81,0,1.47s-.08,1.57-.15,2.71-.18,2.54-.32,4.2-.31,3.64-.52,5.92c0,.39-.09.74-.15,1.06a2.92,2.92,0,0,1-.29.84,1.37,1.37,0,0,1-.53.55,1.75,1.75,0,0,1-.88.19v1.9H120v-2.23l-1.94.08c0-.22.05-.45.08-.7s0-.49.06-.73l0-.66q0-.31.16-2.92l.51,0h.43a8.4,8.4,0,0,0,3.64-.74,7.11,7.11,0,0,0,2.57-2,8.76,8.76,0,0,0,1.53-3.07,14,14,0,0,0,.51-3.87A8.34,8.34,0,0,0,127.29,124.26Zm-3.76,3.69a14.84,14.84,0,0,1-.21,1.65,13.29,13.29,0,0,1-.43,1.7,6.09,6.09,0,0,1-.71,1.5,3.83,3.83,0,0,1-1.05,1.07,2.52,2.52,0,0,1-1.44.41l-.53,0a4.89,4.89,0,0,1-.66-.13,33,33,0,0,1,1.31-7.84q.92-2.68,2.35-2.68a1.18,1.18,0,0,1,1,.69,4.8,4.8,0,0,1,.4,2.29Q123.59,127.16,123.53,127.95Z"/><path class="e6ebd7a8-bccc-4a6c-bf36-8aa52816eb86" d="M157.26,123a9.39,9.39,0,0,0-.75-2.34,8.9,8.9,0,0,0-1.39-2.09,8.56,8.56,0,0,0-2.06-1.69,10.48,10.48,0,0,0-2.75-1.11,14,14,0,0,0-3.48-.4l-8.46,0-.11,2.26h.43l.59,0,.63,0,.56,0c0,.12-.05.28-.08.47s0,.4-.06.64,0,.48-.06.74,0,.52,0,.79l-.59,11.22a5.56,5.56,0,0,1-.21,1.39,1.61,1.61,0,0,1-.45.74,1.4,1.4,0,0,1-.68.31,7.53,7.53,0,0,1-.88.1l-.1,1.93h8.32a14.36,14.36,0,0,0,3.7-.44,11.59,11.59,0,0,0,2.94-1.21,10,10,0,0,0,2.24-1.79,10.59,10.59,0,0,0,1.58-2.19,11,11,0,0,0,1-2.4,11.73,11.73,0,0,0,.39-2.42A10.76,10.76,0,0,0,157.26,123Zm-4.41,3.05a11.49,11.49,0,0,1-.5,2.84,8.16,8.16,0,0,1-1.23,2.47,6.12,6.12,0,0,1-2,1.73,5.71,5.71,0,0,1-2.79.65h-.65l-.8,0h-1.35c0-.12.06-.28.08-.47s0-.4.06-.64,0-.48.06-.74,0-.52,0-.79l.6-11.27a5.59,5.59,0,0,1,.2-1.34,1.67,1.67,0,0,1,.44-.76,1.38,1.38,0,0,1,.69-.33,5,5,0,0,1,1-.06,7.17,7.17,0,0,1,2.71.57,5,5,0,0,1,2,1.59,7,7,0,0,1,1.19,2.69A14.13,14.13,0,0,1,152.85,126.07Z"/><path class="e6ebd7a8-bccc-4a6c-bf36-8aa52816eb86" d="M165.94,115.05a2.22,2.22,0,0,0-.42-.77,2,2,0,0,0-.68-.51,2.06,2.06,0,0,0-.87-.19,2.08,2.08,0,0,0-.86.19,2.39,2.39,0,0,0-.74.51,2.8,2.8,0,0,0-.53.77,2.57,2.57,0,0,0-.24.94,2.4,2.4,0,0,0,.12.93,2.31,2.31,0,0,0,.44.76,2,2,0,0,0,.69.51,2.16,2.16,0,0,0,.91.18,2.14,2.14,0,0,0,1.61-.7,2.46,2.46,0,0,0,.47-.76,3,3,0,0,0,.2-.93A2.57,2.57,0,0,0,165.94,115.05Zm.64,16.13a6.5,6.5,0,0,1-.73,1.82q-.36.51-.69.51a.42.42,0,0,1-.3-.14.94.94,0,0,1-.14-.63c0-.22,0-.53.06-.94s.1-.87.17-1.39.15-1.06.22-1.63l.22-1.69q.11-.83.17-1.55t.06-1.19a6.64,6.64,0,0,0-.14-1.4,2.81,2.81,0,0,0-.46-1.07,2.15,2.15,0,0,0-.84-.69,3,3,0,0,0-1.27-.24,3.34,3.34,0,0,0-1.77.48,5.27,5.27,0,0,0-1.36,1.18,6.34,6.34,0,0,0-.92,1.49,7.27,7.27,0,0,0-.47,1.42L160,126a6.51,6.51,0,0,1,.73-1.82q.36-.51.69-.51a.42.42,0,0,1,.3.14.93.93,0,0,1,.14.63,10.36,10.36,0,0,1-.07,1.11q-.07.65-.17,1.41t-.23,1.56c-.08.54-.16,1.07-.23,1.6s-.12,1-.17,1.52-.07.92-.07,1.3a6.47,6.47,0,0,0,.14,1.39,2.68,2.68,0,0,0,.46,1,2,2,0,0,0,.86.65,3.53,3.53,0,0,0,1.35.22,3.27,3.27,0,0,0,1.76-.48,5.09,5.09,0,0,0,1.33-1.18,6.32,6.32,0,0,0,.89-1.49,7.79,7.79,0,0,0,.46-1.42Z"/><path class="e6ebd7a8-bccc-4a6c-bf36-8aa52816eb86" d="M182.57,124.21a5.4,5.4,0,0,0-.73-1.7,3.67,3.67,0,0,0-1.19-1.15,3.15,3.15,0,0,0-1.65-.42,2.42,2.42,0,0,0-1.06.21,2,2,0,0,0-.69.51,1.93,1.93,0,0,0-.37.67,2.26,2.26,0,0,0-.11.67,1.8,1.8,0,0,0,.17.81,1.73,1.73,0,0,0,.44.57,1.67,1.67,0,0,0,.58.32,2.07,2.07,0,0,0,.61.1,1.71,1.71,0,0,0,.76-.16,3,3,0,0,0,.58-.36,1.67,1.67,0,0,1,.29.41,3.86,3.86,0,0,1,.24.56,4.39,4.39,0,0,1,.16.64,4,4,0,0,1,.06.65,10.07,10.07,0,0,1-.72,3.76,8.44,8.44,0,0,1-.79,1.51,6.94,6.94,0,0,1-1,1.17,4.33,4.33,0,0,1-1.06.76,2.54,2.54,0,0,1-1.07.29.86.86,0,0,1-.55-.16,1.06,1.06,0,0,1-.32-.42,2.13,2.13,0,0,1-.14-.54,4.32,4.32,0,0,1,0-.53q0-.66.09-1.64t.18-2.08q.09-1.1.18-2.22t.08-2.07a6.81,6.81,0,0,0-.12-1.31A2.9,2.9,0,0,0,175,122a2.22,2.22,0,0,0-.86-.74,3.07,3.07,0,0,0-1.39-.27,3.27,3.27,0,0,0-1.76.48,5.05,5.05,0,0,0-1.32,1.18,6.53,6.53,0,0,0-.88,1.49,7.47,7.47,0,0,0-.46,1.42l1.58.47a6.5,6.5,0,0,1,.73-1.82q.36-.51.69-.51a.47.47,0,0,1,.31.14.87.87,0,0,1,.16.63c0,.24,0,.53,0,.88s-.05.74-.09,1.16-.08.87-.11,1.34-.08.93-.11,1.39-.07.9-.09,1.33,0,.81,0,1.14a8,8,0,0,0,.21,1.9,3.87,3.87,0,0,0,.66,1.44,2.94,2.94,0,0,0,1.15.91,4.13,4.13,0,0,0,1.7.32,5.63,5.63,0,0,0,2.28-.46,7.22,7.22,0,0,0,1.92-1.23,9,9,0,0,0,1.54-1.79,13,13,0,0,0,1.14-2.12,12.12,12.12,0,0,0,.7-2.24,10.57,10.57,0,0,0,.24-2.14A8.43,8.43,0,0,0,182.57,124.21Z"/><path class="e6ebd7a8-bccc-4a6c-bf36-8aa52816eb86" d="M195,130.71a5.33,5.33,0,0,1-.91,1.47,4.4,4.4,0,0,1-1,.86,3.42,3.42,0,0,1-1,.4,4.38,4.38,0,0,1-.85.1,2.64,2.64,0,0,1-.94-.18,2,2,0,0,1-.84-.64,3.68,3.68,0,0,1-.61-1.27,7.41,7.41,0,0,1-.24-2c.57-.09,1.16-.19,1.77-.31a18.18,18.18,0,0,0,1.78-.44,12.1,12.1,0,0,0,1.63-.63,6.33,6.33,0,0,0,1.34-.85,3.78,3.78,0,0,0,.91-1.11,3,3,0,0,0,.34-1.43A4,4,0,0,0,196,123a3,3,0,0,0-.9-1.15,3.83,3.83,0,0,0-1.39-.67,7,7,0,0,0-1.78-.21,6.51,6.51,0,0,0-2.34.4,6.73,6.73,0,0,0-1.87,1.07,7.2,7.2,0,0,0-1.42,1.56,10,10,0,0,0-1,1.88,10.32,10.32,0,0,0-.58,2,11,11,0,0,0-.19,2,8.86,8.86,0,0,0,.41,2.84,5.21,5.21,0,0,0,1.17,2,4.72,4.72,0,0,0,1.84,1.18,6.92,6.92,0,0,0,2.42.37,7.37,7.37,0,0,0,1.7-.2,5.23,5.23,0,0,0,1.64-.72,6.73,6.73,0,0,0,1.54-1.44,10.38,10.38,0,0,0,1.37-2.36Zm-6.05-4.84a6.18,6.18,0,0,1,.54-1.49,3.41,3.41,0,0,1,.87-1.09,2,2,0,0,1,1.26-.42,1.38,1.38,0,0,1,.44.08,1.24,1.24,0,0,1,.41.24,1.34,1.34,0,0,1,.31.41,1.54,1.54,0,0,1,.13.61,2.43,2.43,0,0,1-.21,1,2.62,2.62,0,0,1-.72.94,4.87,4.87,0,0,1-1.32.76,10.1,10.1,0,0,1-2,.55A13.41,13.41,0,0,1,188.91,125.87Z"/><path class="e6ebd7a8-bccc-4a6c-bf36-8aa52816eb86" d="M226.17,123a9.39,9.39,0,0,0-.75-2.34,8.84,8.84,0,0,0-1.39-2.09A8.55,8.55,0,0,0,222,116.9a10.5,10.5,0,0,0-2.75-1.11,14,14,0,0,0-3.48-.4l-8.46,0-.11,2.26h.43l.58,0,.63,0,.56,0a4.6,4.6,0,0,0-.08.47c0,.19,0,.4-.06.64s0,.48-.06.74,0,.52,0,.79l-.59,11.22a5.48,5.48,0,0,1-.21,1.39,1.61,1.61,0,0,1-.45.74,1.41,1.41,0,0,1-.68.31,7.57,7.57,0,0,1-.88.1l-.1,1.93h8.32a14.36,14.36,0,0,0,3.7-.44,11.64,11.64,0,0,0,2.94-1.21,10.09,10.09,0,0,0,2.24-1.79,10.65,10.65,0,0,0,1.58-2.19,11.06,11.06,0,0,0,1-2.4,11.48,11.48,0,0,0,.39-2.42A10.76,10.76,0,0,0,226.17,123Zm-4.41,3.05a11.49,11.49,0,0,1-.5,2.84,8.12,8.12,0,0,1-1.23,2.47,6.09,6.09,0,0,1-2,1.73,5.71,5.71,0,0,1-2.79.65h-.65l-.8,0h-1.35a4.58,4.58,0,0,0,.08-.47c0-.19,0-.4.06-.64s0-.48.06-.74,0-.52,0-.79l.6-11.27a5.6,5.6,0,0,1,.2-1.34,1.66,1.66,0,0,1,.44-.76,1.36,1.36,0,0,1,.69-.33,5,5,0,0,1,.95-.06,7.17,7.17,0,0,1,2.71.57,5,5,0,0,1,2,1.59,7,7,0,0,1,1.19,2.69A14.13,14.13,0,0,1,221.76,126.07Z"/><path class="e6ebd7a8-bccc-4a6c-bf36-8aa52816eb86" d="M238.51,130.71a5.37,5.37,0,0,1-.91,1.47,4.36,4.36,0,0,1-1,.86,3.41,3.41,0,0,1-1,.4,4.39,4.39,0,0,1-.85.1,2.63,2.63,0,0,1-.94-.18,2,2,0,0,1-.84-.64,3.68,3.68,0,0,1-.61-1.27,7.48,7.48,0,0,1-.24-2c.57-.09,1.16-.19,1.77-.31a18.21,18.21,0,0,0,1.78-.44,12.07,12.07,0,0,0,1.63-.63,6.24,6.24,0,0,0,1.34-.85,3.75,3.75,0,0,0,.91-1.11,3,3,0,0,0,.34-1.43,4,4,0,0,0-.32-1.66,3,3,0,0,0-.9-1.15,3.85,3.85,0,0,0-1.39-.67,7,7,0,0,0-1.78-.21,6.5,6.5,0,0,0-2.34.4,6.71,6.71,0,0,0-1.87,1.07,7.19,7.19,0,0,0-1.42,1.56,10,10,0,0,0-1,1.88,10.45,10.45,0,0,0-.58,2,11.14,11.14,0,0,0-.19,2,8.91,8.91,0,0,0,.41,2.84,5.21,5.21,0,0,0,1.17,2,4.74,4.74,0,0,0,1.84,1.18,6.92,6.92,0,0,0,2.42.37,7.39,7.39,0,0,0,1.7-.2,5.2,5.2,0,0,0,1.64-.72,6.69,6.69,0,0,0,1.54-1.44,10.31,10.31,0,0,0,1.36-2.36Zm-6.05-4.84a6.18,6.18,0,0,1,.54-1.49,3.43,3.43,0,0,1,.87-1.09,2,2,0,0,1,1.26-.42,1.36,1.36,0,0,1,.44.08,1.24,1.24,0,0,1,.41.24,1.34,1.34,0,0,1,.31.41,1.54,1.54,0,0,1,.14.61,2.44,2.44,0,0,1-.21,1,2.61,2.61,0,0,1-.72.94,4.87,4.87,0,0,1-1.32.76,10.16,10.16,0,0,1-2,.55A13.78,13.78,0,0,1,232.46,125.87Z"/><path class="e6ebd7a8-bccc-4a6c-bf36-8aa52816eb86" d="M255.18,124.21a5.39,5.39,0,0,0-.73-1.7,3.7,3.7,0,0,0-1.19-1.15,3.15,3.15,0,0,0-1.65-.42,2.42,2.42,0,0,0-1.06.21,2,2,0,0,0-.69.51,1.93,1.93,0,0,0-.37.67,2.2,2.2,0,0,0-.11.67,1.8,1.8,0,0,0,.17.81,1.73,1.73,0,0,0,.43.57,1.69,1.69,0,0,0,.59.32,2.05,2.05,0,0,0,.61.1,1.7,1.7,0,0,0,.76-.16,2.9,2.9,0,0,0,.58-.36,1.68,1.68,0,0,1,.29.41,3.66,3.66,0,0,1,.24.56,4.16,4.16,0,0,1,.16.64,3.8,3.8,0,0,1,.06.65,10.06,10.06,0,0,1-.19,2,10.17,10.17,0,0,1-.53,1.78,8.56,8.56,0,0,1-.79,1.51,6.85,6.85,0,0,1-1,1.17,4.29,4.29,0,0,1-1.06.76,2.54,2.54,0,0,1-1.07.29.87.87,0,0,1-.55-.16,1.07,1.07,0,0,1-.31-.42,2.06,2.06,0,0,1-.14-.54,4.29,4.29,0,0,1,0-.53q0-.66.09-1.64t.18-2.08q.09-1.1.18-2.22t.09-2.07a6.81,6.81,0,0,0-.12-1.31,2.93,2.93,0,0,0-.44-1.09,2.24,2.24,0,0,0-.86-.74,3.08,3.08,0,0,0-1.39-.27,3.27,3.27,0,0,0-1.76.48,5.05,5.05,0,0,0-1.32,1.18,6.6,6.6,0,0,0-.89,1.49,7.75,7.75,0,0,0-.46,1.42l1.59.47a6.51,6.51,0,0,1,.73-1.82q.36-.51.69-.51a.47.47,0,0,1,.32.14.87.87,0,0,1,.16.63c0,.24,0,.53,0,.88s-.06.74-.09,1.16-.08.87-.11,1.34-.08.93-.11,1.39-.07.9-.09,1.33,0,.81,0,1.14a8,8,0,0,0,.21,1.9,3.87,3.87,0,0,0,.66,1.44,2.91,2.91,0,0,0,1.15.91,4.12,4.12,0,0,0,1.7.32,5.63,5.63,0,0,0,2.28-.46,7.25,7.25,0,0,0,1.92-1.23,9,9,0,0,0,1.54-1.79,12.94,12.94,0,0,0,1.14-2.12,12,12,0,0,0,.7-2.24,10.57,10.57,0,0,0,.24-2.14A8.43,8.43,0,0,0,255.18,124.21Z"/><path class="e6ebd7a8-bccc-4a6c-bf36-8aa52816eb86" d="M267.57,130.71a5.41,5.41,0,0,1-.91,1.47,4.4,4.4,0,0,1-1,.86,3.41,3.41,0,0,1-1,.4,4.38,4.38,0,0,1-.85.1,2.63,2.63,0,0,1-.94-.18,2,2,0,0,1-.84-.64,3.65,3.65,0,0,1-.61-1.27,7.48,7.48,0,0,1-.24-2c.57-.09,1.16-.19,1.77-.31a18.22,18.22,0,0,0,1.78-.44,12.08,12.08,0,0,0,1.63-.63,6.24,6.24,0,0,0,1.34-.85,3.72,3.72,0,0,0,.91-1.11,3,3,0,0,0,.34-1.43,4,4,0,0,0-.32-1.66,3,3,0,0,0-.9-1.15,3.85,3.85,0,0,0-1.39-.67,7,7,0,0,0-1.78-.21,6.51,6.51,0,0,0-2.34.4,6.74,6.74,0,0,0-1.87,1.07A7.19,7.19,0,0,0,258.9,124a10,10,0,0,0-1,1.88,10.45,10.45,0,0,0-.58,2,11.14,11.14,0,0,0-.19,2,8.91,8.91,0,0,0,.41,2.84,5.26,5.26,0,0,0,1.17,2,4.75,4.75,0,0,0,1.84,1.18,6.92,6.92,0,0,0,2.42.37,7.39,7.39,0,0,0,1.7-.2,5.2,5.2,0,0,0,1.64-.72,6.69,6.69,0,0,0,1.54-1.44,10.32,10.32,0,0,0,1.36-2.36Zm-6.05-4.84a6.18,6.18,0,0,1,.54-1.49,3.43,3.43,0,0,1,.87-1.09,2,2,0,0,1,1.26-.42,1.38,1.38,0,0,1,.44.08,1.25,1.25,0,0,1,.41.24,1.31,1.31,0,0,1,.31.41,1.51,1.51,0,0,1,.14.61,2.44,2.44,0,0,1-.21,1,2.61,2.61,0,0,1-.72.94,4.87,4.87,0,0,1-1.32.76,10.16,10.16,0,0,1-2,.55A13.4,13.4,0,0,1,261.52,125.87Z"/><path class="e6ebd7a8-bccc-4a6c-bf36-8aa52816eb86" d="M277.08,131.19a6.5,6.5,0,0,1-.73,1.82q-.36.51-.69.51a.38.38,0,0,1-.29-.17,1.18,1.18,0,0,1-.14-.69q0-.44,0-1.09c0-.43.07-1,.13-1.62s.14-1.44.24-2.37.22-2,.37-3.34l.51-4.52q.29-2.57.68-5.91h-1.59a1.9,1.9,0,0,1-.49.3,5.21,5.21,0,0,1-.87.28,11,11,0,0,1-1.29.22,15.94,15.94,0,0,1-1.77.09l-.11,2.2,2.06-.08q-.6,4.6-.82,6.5t-.4,3.7q-.18,1.8-.29,3.43t-.11,3a3.57,3.57,0,0,0,.22,1.31,2.34,2.34,0,0,0,.58.88,2.19,2.19,0,0,0,.84.48,3.36,3.36,0,0,0,1,.15,3.61,3.61,0,0,0,1.82-.44,4.49,4.49,0,0,0,1.3-1.11,6,6,0,0,0,.86-1.48,11.54,11.54,0,0,0,.51-1.55Z"/><path class="e6ebd7a8-bccc-4a6c-bf36-8aa52816eb86" d="M292.57,124.7a6.09,6.09,0,0,0-1.26-2,5.23,5.23,0,0,0-1.87-1.27,6,6,0,0,0-2.29-.44,6.63,6.63,0,0,0-3.05.69,7.08,7.08,0,0,0-2.32,1.87,8.52,8.52,0,0,0-1.47,2.74,10.52,10.52,0,0,0-.52,3.32,8.94,8.94,0,0,0,.36,2.59,6,6,0,0,0,1.1,2.11,5.3,5.3,0,0,0,1.84,1.43,6,6,0,0,0,2.59.53,6.5,6.5,0,0,0,3.07-.72,7.1,7.1,0,0,0,2.31-1.92,8.79,8.79,0,0,0,1.46-2.79,10.84,10.84,0,0,0,.51-3.33A7.72,7.72,0,0,0,292.57,124.7ZM289,128.33q0,.6-.09,1.27a13.2,13.2,0,0,1-.23,1.34,10.21,10.21,0,0,1-.37,1.27,4.79,4.79,0,0,1-.53,1.07,2.87,2.87,0,0,1-.72.74,1.54,1.54,0,0,1-.9.28,1.46,1.46,0,0,1-1.16-.54,4,4,0,0,1-.73-1.35,8.59,8.59,0,0,1-.38-1.79,16.92,16.92,0,0,1-.11-1.86,12,12,0,0,1,.21-2.27,7.86,7.86,0,0,1,.59-1.87,3.84,3.84,0,0,1,.91-1.27,1.71,1.71,0,0,1,1.21-.46,1.55,1.55,0,0,1,.86.27,2.2,2.2,0,0,1,.63.68,4.1,4.1,0,0,1,.42,1,9.1,9.1,0,0,1,.26,1.16,11.8,11.8,0,0,1,.12,1.21C289,127.6,289,128,289,128.33Z"/><path class="e6ebd7a8-bccc-4a6c-bf36-8aa52816eb86" d="M309.59,124.26a5.49,5.49,0,0,0-.83-1.77,3.71,3.71,0,0,0-1.36-1.15,4.11,4.11,0,0,0-1.86-.41,4.41,4.41,0,0,0-1.24.19,4.25,4.25,0,0,0-1.33.69,6.34,6.34,0,0,0-1.3,1.36,9.59,9.59,0,0,0-1.14,2.17h0a7.09,7.09,0,0,0,.09-.72c0-.28,0-.56,0-.84a4.2,4.2,0,0,0-.2-1.42,2.24,2.24,0,0,0-.54-.87,1.8,1.8,0,0,0-.77-.44,3.36,3.36,0,0,0-.91-.12,2.8,2.8,0,0,0-1.65.48,4.43,4.43,0,0,0-1.14,1.18,6.34,6.34,0,0,0-.73,1.49,12.84,12.84,0,0,0-.39,1.42l1.59.47a6.51,6.51,0,0,1,.73-1.82q.36-.51.69-.51a.38.38,0,0,1,.29.16,1.19,1.19,0,0,1,.14.69q0,.47,0,1.47t-.15,2.71q-.11,1.71-.31,4.2t-.52,5.92q-.06.59-.15,1.06a2.86,2.86,0,0,1-.29.84,1.36,1.36,0,0,1-.53.55,1.74,1.74,0,0,1-.88.19v1.9h7.41v-2.23l-1.94.08c0-.22.06-.45.08-.7s0-.49.06-.73,0-.46.05-.66.07-1.18.16-2.92l.51,0h.43a8.41,8.41,0,0,0,3.64-.74,7.12,7.12,0,0,0,2.57-2,8.77,8.77,0,0,0,1.53-3.07,14.1,14.1,0,0,0,.51-3.87A8.42,8.42,0,0,0,309.59,124.26Zm-3.76,3.69a15.29,15.29,0,0,1-.22,1.65,13.28,13.28,0,0,1-.43,1.7,6,6,0,0,1-.71,1.5,3.8,3.8,0,0,1-1.05,1.07,2.52,2.52,0,0,1-1.44.41l-.53,0a4.81,4.81,0,0,1-.66-.13,33.06,33.06,0,0,1,1.31-7.84q.92-2.68,2.35-2.68a1.18,1.18,0,0,1,1,.69,4.82,4.82,0,0,1,.4,2.29C305.89,127,305.87,127.42,305.83,127.95Z"/><path class="e6ebd7a8-bccc-4a6c-bf36-8aa52816eb86" d="M334.82,131.19a6.5,6.5,0,0,1-.73,1.82q-.36.51-.69.51a.42.42,0,0,1-.3-.14.94.94,0,0,1-.14-.63,14.69,14.69,0,0,1,.11-1.74q.12-.94.25-1.91c.09-.64.17-1.28.25-1.9a14.62,14.62,0,0,0,.11-1.75,8,8,0,0,0-.2-1.86,3.93,3.93,0,0,0-.63-1.41,2.87,2.87,0,0,0-1.1-.91,3.65,3.65,0,0,0-1.6-.32,4.46,4.46,0,0,0-1.28.19,3.88,3.88,0,0,0-1.29.69,6.21,6.21,0,0,0-1.23,1.36,10.8,10.8,0,0,0-1.11,2.17h0a5,5,0,0,0-.44-3.24,2.54,2.54,0,0,0-2.36-1.18,4.77,4.77,0,0,0-1.31.19,4.21,4.21,0,0,0-1.35.69,6.28,6.28,0,0,0-1.29,1.36,9.82,9.82,0,0,0-1.14,2.17h0c0-.16,0-.31.06-.44s0-.26.06-.39,0-.27,0-.41,0-.32,0-.51a3.46,3.46,0,0,0-.21-1.29,2.16,2.16,0,0,0-.55-.82,1.91,1.91,0,0,0-.79-.43,3.45,3.45,0,0,0-.91-.12,2.8,2.8,0,0,0-1.64.48,4.37,4.37,0,0,0-1.15,1.18,6.34,6.34,0,0,0-.73,1.49,12.84,12.84,0,0,0-.39,1.42l1.59.47a6.51,6.51,0,0,1,.73-1.82q.36-.51.69-.51a.38.38,0,0,1,.29.14,1,1,0,0,1,.13.63,10.64,10.64,0,0,1-.08,1.06c-.05.47-.12,1-.19,1.62s-.16,1.26-.26,1.94-.18,1.36-.26,2-.14,1.3-.19,1.89-.08,1.1-.08,1.52c0,.1,0,.3,0,.62s0,.58.06.78h3.76c0-.88-.07-1.43-.08-1.62s0-.36,0-.49a14.29,14.29,0,0,1,.18-2.17,22.42,22.42,0,0,1,.48-2.28,20.13,20.13,0,0,1,.71-2.17,13.75,13.75,0,0,1,.86-1.82,6,6,0,0,1,.92-1.26,1.34,1.34,0,0,1,.91-.47.7.7,0,0,1,.64.29,1.84,1.84,0,0,1,.19.95,17.1,17.1,0,0,1-.11,1.71l-.24,2.26q-.13,1.22-.24,2.54t-.11,2.56c0,.19,0,.46,0,.82a10.89,10.89,0,0,0,.08,1.15h3.79c0-.18,0-.38,0-.59l0-.62c0-.2,0-.4,0-.58s0-.34,0-.47a14.32,14.32,0,0,1,.17-2.16,22.15,22.15,0,0,1,.46-2.26,19.56,19.56,0,0,1,.67-2.13,13.27,13.27,0,0,1,.82-1.79,5.48,5.48,0,0,1,.9-1.23,1.32,1.32,0,0,1,.91-.46.7.7,0,0,1,.64.29,1.82,1.82,0,0,1,.19.95,16,16,0,0,1-.11,1.69q-.11,1-.25,2.14t-.25,2.24a19.31,19.31,0,0,0-.11,2,6.74,6.74,0,0,0,.13,1.39,2.72,2.72,0,0,0,.44,1,1.9,1.9,0,0,0,.84.65,3.46,3.46,0,0,0,1.34.22,3.27,3.27,0,0,0,1.76-.48,5,5,0,0,0,1.32-1.18,6.55,6.55,0,0,0,.89-1.49,7.8,7.8,0,0,0,.46-1.42Z"/><path class="e6ebd7a8-bccc-4a6c-bf36-8aa52816eb86" d="M347.81,130.71a5.33,5.33,0,0,1-.91,1.47,4.4,4.4,0,0,1-1,.86,3.42,3.42,0,0,1-1,.4,4.38,4.38,0,0,1-.85.1,2.64,2.64,0,0,1-.94-.18,2,2,0,0,1-.84-.64,3.68,3.68,0,0,1-.61-1.27,7.41,7.41,0,0,1-.24-2c.57-.09,1.16-.19,1.77-.31a18.18,18.18,0,0,0,1.78-.44,12.1,12.1,0,0,0,1.63-.63,6.33,6.33,0,0,0,1.34-.85,3.78,3.78,0,0,0,.91-1.11,3,3,0,0,0,.34-1.43,4,4,0,0,0-.32-1.66,3,3,0,0,0-.9-1.15,3.83,3.83,0,0,0-1.39-.67,7,7,0,0,0-1.78-.21,6.51,6.51,0,0,0-2.34.4,6.73,6.73,0,0,0-1.87,1.07,7.19,7.19,0,0,0-1.42,1.56,10,10,0,0,0-1,1.88,10.33,10.33,0,0,0-.58,2,11,11,0,0,0-.19,2,8.86,8.86,0,0,0,.41,2.84,5.21,5.21,0,0,0,1.17,2,4.72,4.72,0,0,0,1.84,1.18,6.92,6.92,0,0,0,2.42.37,7.37,7.37,0,0,0,1.7-.2,5.23,5.23,0,0,0,1.64-.72,6.73,6.73,0,0,0,1.54-1.44,10.38,10.38,0,0,0,1.37-2.36Zm-6.05-4.84a6.18,6.18,0,0,1,.54-1.49,3.41,3.41,0,0,1,.87-1.09,2,2,0,0,1,1.26-.42,1.38,1.38,0,0,1,.44.08,1.24,1.24,0,0,1,.41.24,1.34,1.34,0,0,1,.31.41,1.54,1.54,0,0,1,.13.61,2.44,2.44,0,0,1-.21,1,2.62,2.62,0,0,1-.72.94,4.87,4.87,0,0,1-1.32.76,10.1,10.1,0,0,1-2,.55A13.42,13.42,0,0,1,341.76,125.87Z"/><path class="e6ebd7a8-bccc-4a6c-bf36-8aa52816eb86" d="M366.44,131.19a6.49,6.49,0,0,1-.73,1.82q-.36.51-.69.51a.42.42,0,0,1-.3-.14.94.94,0,0,1-.14-.63,14.67,14.67,0,0,1,.11-1.74c.08-.63.16-1.26.25-1.91s.17-1.28.25-1.9a14.26,14.26,0,0,0,.11-1.75,8,8,0,0,0-.2-1.86,3.93,3.93,0,0,0-.63-1.41,2.89,2.89,0,0,0-1.09-.91,3.62,3.62,0,0,0-1.59-.32,4.61,4.61,0,0,0-1.29.19,4,4,0,0,0-1.32.69,6.28,6.28,0,0,0-1.26,1.36,10.24,10.24,0,0,0-1.12,2.17h0c0-.16,0-.31.06-.44s0-.26.06-.39,0-.27,0-.41,0-.32,0-.51a3.46,3.46,0,0,0-.21-1.29,2.16,2.16,0,0,0-.55-.82,1.91,1.91,0,0,0-.79-.43,3.44,3.44,0,0,0-.91-.12,2.8,2.8,0,0,0-1.64.48,4.37,4.37,0,0,0-1.15,1.18,6.27,6.27,0,0,0-.73,1.49,12.48,12.48,0,0,0-.39,1.42l1.59.47a6.51,6.51,0,0,1,.73-1.82q.36-.51.69-.51a.38.38,0,0,1,.29.14,1,1,0,0,1,.13.63,10.64,10.64,0,0,1-.08,1.06c-.05.47-.12,1-.19,1.62s-.16,1.26-.26,1.94-.18,1.36-.26,2-.14,1.3-.19,1.89-.08,1.1-.08,1.52v.27q0,.12,0,.27c0,.1,0,.22,0,.36s0,.31,0,.51h3.77c0-.11,0-.26,0-.45l0-.58c0-.2,0-.4,0-.59s0-.36,0-.49a14.3,14.3,0,0,1,.18-2.17,21.94,21.94,0,0,1,.48-2.28,20.55,20.55,0,0,1,.7-2.17,13.31,13.31,0,0,1,.85-1.82,6,6,0,0,1,.92-1.26,1.34,1.34,0,0,1,.91-.47.7.7,0,0,1,.64.29,1.84,1.84,0,0,1,.19.95,15.93,15.93,0,0,1-.11,1.69q-.11,1-.25,2.14t-.25,2.24a19.34,19.34,0,0,0-.11,2,6.88,6.88,0,0,0,.13,1.39,2.75,2.75,0,0,0,.44,1,1.9,1.9,0,0,0,.83.65,3.48,3.48,0,0,0,1.34.22,3.27,3.27,0,0,0,1.76-.48,5,5,0,0,0,1.32-1.18,6.55,6.55,0,0,0,.89-1.49,7.63,7.63,0,0,0,.46-1.42Z"/><path class="e6ebd7a8-bccc-4a6c-bf36-8aa52816eb86" d="M378.13,131.56a4.14,4.14,0,0,1-.74,1,3.48,3.48,0,0,1-.76.56,2.66,2.66,0,0,1-.68.26,2.39,2.39,0,0,1-.48.06,1.26,1.26,0,0,1-.75-.2,1.32,1.32,0,0,1-.42-.49,1.87,1.87,0,0,1-.18-.63,5.88,5.88,0,0,1,0-.62c0-.22,0-.51,0-.87s0-.76.09-1.2.08-.92.13-1.43.1-1,.16-1.56l.17-1.59q.09-.79.17-1.49l3.67-.06.19-2H375l.6-4.41h-2a9.23,9.23,0,0,1-.52,1.78,4.52,4.52,0,0,1-.89,1.39,3.9,3.9,0,0,1-1.35.91,4.88,4.88,0,0,1-1.88.33l-.26,2.12h1.07l1.26,0q-.11,1.06-.22,2.17c-.07.74-.14,1.47-.19,2.19s-.11,1.4-.15,2-.07,1.22-.09,1.72a9.74,9.74,0,0,0,.1,1.77,4.08,4.08,0,0,0,.53,1.52,2.89,2.89,0,0,0,1.14,1.07,4.08,4.08,0,0,0,1.94.4,5.56,5.56,0,0,0,3.08-.92,7.25,7.25,0,0,0,2.41-2.79Z"/></g></g></svg>